# Created by Metasequoia

v -4.293447 0.234803 -0.022592
v -3.714436 0.234803 2.138138
v -2.132713 0.234803 3.719860
v 0.027882 0.234803 4.298802
v 2.188612 0.234803 3.719860
v 3.770335 0.234803 2.138138
v 4.349205 0.234803 -0.022592
v 3.770335 0.234803 -2.183186
v 2.188612 0.234803 -3.764906
v 0.027882 0.234803 -4.343908
v -2.132713 0.234803 -3.764906
v -3.714436 0.234803 -2.183186
v -4.293447 -0.180253 -0.022592
v -3.714436 -0.180253 2.138138
v -2.132713 -0.180253 3.719860
v 0.027882 -0.180253 4.298802
v 2.188612 -0.180253 3.719860
v 3.770335 -0.180253 2.138138
v 4.349205 -0.180253 -0.022592
v 3.770335 -0.180253 -2.183186
v 2.188612 -0.180253 -3.764906
v 0.027882 -0.180253 -4.343908
v -2.132713 -0.180253 -3.764906
v -3.714436 -0.180253 -2.183186
v 3.587390 2.805403 3.540966
v -3.674680 2.805403 3.540963
v 3.929038 2.735489 -1.287339
v 3.929042 2.858124 3.363954
v 3.929042 0.287644 3.363958
v 3.929038 0.287644 -1.287339
v -4.016332 2.858123 3.363954
v -4.016332 2.735486 -1.287340
v -4.016332 0.287644 -1.287339
v -4.016332 0.287644 3.363954
v -4.000132 2.686437 -1.588042
v -3.655831 1.761909 -3.328365
v -3.655831 0.272679 -3.328365
v -4.000132 0.272677 -1.588040
v 3.568538 1.761909 -3.328359
v 3.912844 2.686440 -1.588040
v 3.912844 0.272679 -1.588033
v 3.568538 0.272679 -3.328359
v -3.521942 3.172373 3.532647
v 3.389554 3.172373 3.532648
v 3.391773 2.972098 -1.288756
v -3.527917 2.972098 -1.288759
v 2.778833 2.053494 -3.343877
v -2.900988 2.062042 -3.336222
v -3.521400 2.919387 -1.757491
v 3.388819 2.888829 -1.689315
v -1.768787 0.766782 -5.435100
v -1.928503 0.431189 -5.435100
v -2.314090 0.292183 -5.435100
v -2.699677 0.431189 -5.435100
v -2.859392 0.766782 -5.435100
v -2.699677 1.102371 -5.435100
v -2.314090 1.241375 -5.435100
v -1.928503 1.102371 -5.435100
v -1.548786 0.766782 -5.034835
v -1.772936 0.295796 -5.034835
v -2.314090 0.100707 -5.034835
v -2.855244 0.295796 -5.034835
v -3.079395 0.766782 -5.034836
v -2.855244 1.237766 -5.034835
v -2.314090 1.432854 -5.034835
v -1.772936 1.237764 -5.034835
v -2.314090 0.766782 -5.716373
v -1.548786 0.766782 9.569377
v -1.772938 0.295796 7.817935
v -2.314090 0.100707 6.920402
v -2.855244 0.295796 7.817935
v -3.079396 0.766782 9.569377
v -2.855244 1.237766 10.483625
v -2.314090 1.432854 10.483625
v -1.772938 1.237764 10.483625
v -2.404393 0.710321 5.313741
v -0.257926 0.766782 -5.435100
v -0.417642 0.431189 -5.435100
v -0.803229 0.292183 -5.435100
v -1.188817 0.431189 -5.435100
v -1.348531 0.766782 -5.435100
v -1.188817 1.102371 -5.435100
v -0.803229 1.241375 -5.435100
v -0.417642 1.102371 -5.435100
v -0.037925 0.766782 -5.034835
v -0.262075 0.295796 -5.034835
v -0.803229 0.100707 -5.034835
v -1.344384 0.295796 -5.034835
v -1.568535 0.766782 -5.034836
v -1.344384 1.237766 -5.034835
v -0.803229 1.432854 -5.034835
v -0.262075 1.237764 -5.034835
v -0.803229 0.766782 -5.716373
v -0.037925 0.766782 9.569377
v -0.262077 0.295796 7.817935
v -0.803229 0.100707 6.920402
v -1.344384 0.295796 7.817935
v -1.568535 0.766782 9.569377
v -1.344384 1.237766 10.483625
v -0.803229 1.432854 10.483625
v -0.262077 1.237764 10.483625
v -0.893533 0.710321 5.313741
v 1.768787 0.766782 -5.435100
v 1.928503 0.431189 -5.435100
v 2.314090 0.292183 -5.435100
v 2.699677 0.431189 -5.435100
v 2.859392 0.766782 -5.435100
v 2.699677 1.102371 -5.435100
v 2.314090 1.241375 -5.435100
v 1.928503 1.102371 -5.435100
v 1.548786 0.766782 -5.034835
v 1.772936 0.295796 -5.034835
v 2.314090 0.100707 -5.034835
v 2.855244 0.295796 -5.034835
v 3.079395 0.766782 -5.034836
v 2.855244 1.237766 -5.034835
v 2.314090 1.432854 -5.034835
v 1.772936 1.237764 -5.034835
v 2.314090 0.766782 -5.716373
v 1.548786 0.766782 9.569377
v 1.772938 0.295796 7.817935
v 2.314090 0.100707 6.920402
v 2.855244 0.295796 7.817935
v 3.079396 0.766782 9.569377
v 2.855244 1.237766 10.483625
v 2.314090 1.432854 10.483625
v 1.772938 1.237764 10.483625
v 2.404393 0.710321 5.313741
v 0.257926 0.766782 -5.435100
v 0.417642 0.431189 -5.435100
v 0.803229 0.292183 -5.435100
v 1.188817 0.431189 -5.435100
v 1.348531 0.766782 -5.435100
v 1.188817 1.102371 -5.435100
v 0.803229 1.241375 -5.435100
v 0.417642 1.102371 -5.435100
v 0.037925 0.766782 -5.034835
v 0.262075 0.295796 -5.034835
v 0.803229 0.100707 -5.034835
v 1.344384 0.295796 -5.034835
v 1.568535 0.766782 -5.034836
v 1.344384 1.237766 -5.034835
v 0.803229 1.432854 -5.034835
v 0.262075 1.237764 -5.034835
v 0.803229 0.766782 -5.716373
v 0.037925 0.766782 9.569377
v 0.262077 0.295796 7.817935
v 0.803229 0.100707 6.920402
v 1.344384 0.295796 7.817935
v 1.568535 0.766782 9.569377
v 1.344384 1.237766 10.483625
v 0.803229 1.432854 10.483625
v 0.262077 1.237764 10.483625
v 0.893533 0.710321 5.313741
v 3.587390 2.805403 3.540966
v -3.674680 2.805403 3.540963
v 3.929042 0.287644 3.363958
v -4.016332 0.287644 3.363954
# 158 vertices

vt 0.33011 0.21720
vt 0.31709 0.21720
vt 0.31709 0.17347
vt 0.33011 0.17347
vt 0.33011 0.24922
vt 0.31709 0.24922
vt 0.33011 0.26094
vt 0.31709 0.26094
vt 0.33011 0.12974
vt 0.31709 0.12974
vt 0.33011 0.09772
vt 0.31709 0.09772
vt 0.33011 0.08601
vt 0.31709 0.08601
vt 0.35512 0.22535
vt 0.37157 0.23267
vt 0.38802 0.22535
vt 0.34308 0.20534
vt 0.40006 0.20534
vt 0.33867 0.17801
vt 0.40447 0.17801
vt 0.34308 0.15067
vt 0.40006 0.15067
vt 0.35512 0.13066
vt 0.38802 0.13066
vt 0.37157 0.12334
vt 0.21250 0.77758
vt 0.21250 0.89712
vt 0.29155 0.89141
vt 0.29155 0.77758
vt 0.30246 0.33909
vt 0.30246 0.45293
vt 0.38151 0.45863
vt 0.38151 0.33909
vt 0.25331 0.33839
vt 0.25331 0.40765
vt 0.29735 0.45065
vt 0.29735 0.33839
vt 0.29666 0.77688
vt 0.29666 0.88913
vt 0.32624 0.84614
vt 0.32624 0.77688
vt 0.08047 0.57733
vt 0.08037 0.80154
vt 0.19797 0.80154
vt 0.19793 0.57733
vt 0.19792 0.82017
vt 0.08048 0.82334
vt 0.09102 0.89676
vt 0.18755 0.89712
vt 0.07787 0.54548
vt 0.07207 0.54793
vt 0.08047 0.56255
vt 0.20710 0.54793
vt 0.20130 0.54548
vt 0.19793 0.56255
vt 0.07207 0.42839
vt 0.20710 0.42839
vt 0.20098 0.89639
vt 0.20683 0.81546
vt 0.07234 0.81546
vt 0.07820 0.89639
vt 0.20710 0.80148
vt 0.20710 0.58517
vt 0.07207 0.58517
vt 0.07207 0.80148
vt 0.07207 0.39965
vt 0.19485 0.39965
vt 0.19485 0.33040
vt 0.07207 0.33040
vt 0.18202 0.41361
vt 0.08549 0.41321
vt 0.00000 1.00000
vt 0.64270 0.37725
vt 0.63310 0.37737
vt 0.63310 0.36834
vt 0.64668 0.37694
vt 0.64270 0.37663
vt 0.63310 0.37650
vt 0.62351 0.37663
vt 0.61953 0.37694
vt 0.62351 0.37725
vt 0.65215 0.38917
vt 0.65215 0.75470
vt 0.64657 0.78258
vt 0.64657 0.38961
vt 0.63310 0.38856
vt 0.63310 0.83508
vt 0.64657 0.78171
vt 0.64657 0.38874
vt 0.61406 0.38917
vt 0.61406 0.86365
vt 0.61964 0.86322
vt 0.61964 0.38874
vt 0.61964 0.86408
vt 0.61964 0.38961
vt 0.63310 0.38979
vt 0.63310 0.83631
vt 0.63472 0.70551
vt 0.64270 0.37845
vt 0.63310 0.37858
vt 0.63310 0.36955
vt 0.64668 0.37815
vt 0.64270 0.37784
vt 0.63310 0.37771
vt 0.62351 0.37784
vt 0.61953 0.37815
vt 0.62351 0.37845
vt 0.65215 0.39038
vt 0.65215 0.75591
vt 0.64657 0.78379
vt 0.64657 0.39082
vt 0.63310 0.38977
vt 0.63310 0.83629
vt 0.64657 0.78292
vt 0.64657 0.38995
vt 0.61406 0.39038
vt 0.61406 0.86486
vt 0.61964 0.86443
vt 0.61964 0.38995
vt 0.61964 0.86529
vt 0.61964 0.39082
vt 0.63310 0.39100
vt 0.63310 0.83752
vt 0.63472 0.70672
vt 0.12518 0.13286
vt 0.13611 0.26509
vt 0.26323 0.26861
vt 0.26696 0.13286
# 129 texture vertices

vn -0.99603 0.00000 -0.08898
vn -0.90707 0.00000 0.42099
vn -0.57506 0.00000 0.81811
vn -0.08897 0.00000 0.99603
vn 0.42097 0.00000 0.90708
vn 0.81812 0.00000 0.57505
vn 0.99604 0.00000 0.08894
vn 0.90708 0.00000 -0.42096
vn 0.57506 0.00000 -0.81811
vn 0.08896 0.00000 -0.99603
vn -0.42099 0.00000 -0.90706
vn -0.81810 0.00000 -0.57507
vn -0.99603 0.00000 0.08896
vn -0.81811 0.00000 0.57507
vn -0.42098 0.00000 0.90707
vn 0.08895 0.00000 0.99604
vn 0.57506 0.00000 0.81811
vn 0.90708 0.00000 0.42095
vn 0.99604 0.00000 -0.08896
vn 0.81811 0.00000 -0.57505
vn 0.42098 0.00000 -0.90707
vn -0.08898 0.00000 -0.99603
vn -0.57507 0.00000 -0.81811
vn -0.90706 0.00000 -0.42100
vn 0.22612 0.07472 0.97123
vn -0.30400 0.07551 0.94967
vn 0.99964 -0.00000 -0.02690
vn 1.00000 -0.00000 -0.00000
vn 0.96441 -0.26441 -0.00000
vn 0.96419 -0.26450 -0.01937
vn -0.94791 0.31829 -0.01298
vn -0.99964 -0.00000 -0.02691
vn -0.99964 -0.00000 -0.02691
vn -1.00000 0.00000 0.00000
vn -0.88850 0.40977 -0.20655
vn -0.68558 0.56305 -0.46147
vn -0.98099 -0.00000 -0.19408
vn -0.99225 -0.00000 -0.12425
vn 0.98099 -0.00000 -0.19408
vn 0.99225 -0.00000 -0.12424
vn 0.98223 -0.15554 -0.10499
vn 0.98099 0.00000 -0.19408
vn -0.18209 0.98244 -0.04058
vn 0.25582 0.96590 -0.04000
vn 0.24667 0.96355 -0.10355
vn -0.27331 0.95656 -0.10149
vn 0.15519 0.85767 -0.49022
vn -0.10315 0.86155 -0.49708
vn -0.26963 0.89260 -0.36133
vn 0.16244 0.91874 -0.35989
vn 0.73176 -0.08478 -0.67627
vn 0.44832 -0.61388 -0.64974
vn 0.00000 -0.73434 -0.67878
vn -0.52153 -0.58258 -0.62338
vn -0.73176 0.08479 -0.67627
vn -0.44832 0.61388 -0.64974
vn 0.06680 0.77253 -0.63145
vn 0.55633 0.50992 -0.65611
vn 0.95668 0.15177 -0.24846
vn 0.74318 -0.62564 -0.23718
vn 0.05238 -0.96591 -0.25354
vn -0.59404 -0.78213 -0.18815
vn -0.95668 -0.15177 -0.24846
vn -0.74318 0.62564 -0.23718
vn -0.11636 0.96832 -0.22094
vn 0.54822 0.80392 -0.23057
vn -0.00000 0.00000 -1.00000
vn 0.98765 -0.15668 0.00000
vn 0.56466 -0.82533 0.00000
vn -0.11931 -0.99286 0.00000
vn -0.76599 -0.64285 -0.00000
vn -0.98765 0.15668 -0.00000
vn -0.56465 0.82533 0.00000
vn 0.11931 0.99286 0.00000
vn 0.76599 0.64285 0.00000
vn 0.97701 -0.00760 0.21306
vn 0.73176 -0.08478 -0.67627
vn 0.44832 -0.61388 -0.64974
vn 0.00000 -0.73434 -0.67878
vn -0.52153 -0.58258 -0.62338
vn -0.73176 0.08479 -0.67627
vn -0.44832 0.61388 -0.64974
vn 0.06680 0.77253 -0.63145
vn 0.55633 0.50992 -0.65611
vn 0.95668 0.15177 -0.24846
vn 0.74318 -0.62564 -0.23718
vn 0.05238 -0.96591 -0.25354
vn -0.59404 -0.78213 -0.18815
vn -0.95668 -0.15177 -0.24846
vn -0.74318 0.62564 -0.23718
vn -0.11636 0.96832 -0.22094
vn 0.54822 0.80392 -0.23057
vn -0.00000 0.00000 -1.00000
vn 0.98765 -0.15668 0.00000
vn 0.56466 -0.82533 0.00000
vn -0.11931 -0.99286 0.00000
vn -0.76599 -0.64285 0.00000
vn -0.98765 0.15668 0.00000
vn -0.56465 0.82533 0.00000
vn 0.11931 0.99286 0.00000
vn 0.76599 0.64285 0.00000
vn 0.97701 -0.00760 0.21306
vn -0.73176 -0.08478 -0.67627
vn -0.44832 -0.61388 -0.64974
vn -0.00000 -0.73434 -0.67878
vn 0.52153 -0.58258 -0.62338
vn 0.73176 0.08479 -0.67627
vn 0.44832 0.61388 -0.64974
vn -0.06680 0.77253 -0.63145
vn -0.55633 0.50992 -0.65611
vn -0.95668 0.15177 -0.24846
vn -0.74318 -0.62564 -0.23718
vn -0.05238 -0.96591 -0.25354
vn 0.59404 -0.78213 -0.18815
vn 0.95668 -0.15177 -0.24846
vn 0.74318 0.62564 -0.23718
vn 0.11636 0.96832 -0.22094
vn -0.54822 0.80392 -0.23057
vn 0.00000 0.00000 -1.00000
vn -0.98765 -0.15668 0.00000
vn -0.56466 -0.82533 0.00000
vn 0.11931 -0.99286 0.00000
vn 0.76599 -0.64285 -0.00000
vn 0.98765 0.15668 -0.00000
vn 0.56465 0.82533 0.00000
vn -0.11931 0.99286 0.00000
vn -0.76599 0.64285 0.00000
vn -0.97701 -0.00760 0.21306
vn -0.73176 -0.08478 -0.67627
vn -0.44832 -0.61388 -0.64974
vn -0.00000 -0.73434 -0.67878
vn 0.52153 -0.58258 -0.62338
vn 0.73176 0.08479 -0.67627
vn 0.44832 0.61388 -0.64974
vn -0.06680 0.77253 -0.63145
vn -0.55633 0.50992 -0.65611
vn -0.95668 0.15177 -0.24846
vn -0.74318 -0.62564 -0.23718
vn -0.05238 -0.96591 -0.25354
vn 0.59404 -0.78213 -0.18815
vn 0.95668 -0.15177 -0.24846
vn 0.74318 0.62564 -0.23718
vn 0.11636 0.96832 -0.22094
vn -0.54822 0.80392 -0.23057
vn 0.00000 0.00000 -1.00000
vn -0.98765 -0.15668 0.00000
vn -0.56466 -0.82533 0.00000
vn 0.11931 -0.99286 0.00000
vn 0.76599 -0.64285 0.00000
vn 0.98765 0.15668 0.00000
vn 0.56465 0.82533 0.00000
vn -0.11931 0.99286 0.00000
vn -0.76599 0.64285 0.00000
vn -0.97701 -0.00760 0.21306
vn -0.00000 -0.07013 0.99754
vn -0.00000 -0.07013 0.99754
vn -0.00000 -0.07013 0.99754
vn 0.00000 1.00000 0.00000
vn 0.00000 -1.00000 0.00000
vn -0.44562 0.09931 0.88969
vn -0.14597 0.08309 0.98579
vn 0.44150 0.12305 0.88879
vn 0.21453 0.13757 0.96698
vn -0.46002 0.00000 0.88791
vn 0.46003 0.00000 0.88790
vn 0.35057 0.78923 -0.50419
vn 0.39769 0.87151 -0.28689
vn 0.40137 0.91081 -0.09658
vn 0.44940 0.89283 -0.03002
vn -0.43592 0.89968 -0.02372
vn -0.43419 0.89569 -0.09604
vn -0.00036 -0.02080 -0.99978
vn 0.00000 -0.01309 -0.99991
vn 0.00000 0.00000 -1.00000
vn -0.00072 -0.04160 -0.99913
vn -0.00143 -0.05701 -0.99837
vn -0.00841 -0.99991 0.01077
vn -0.01411 -0.99961 0.02410
vn -0.01327 -0.99962 0.02426
vn 0.00084 -1.00000 0.00128
vn -0.00777 -0.99997 0.00265
vn -0.01553 -0.99987 0.00307
vn 0.91499 0.33779 0.22065
vn 0.65211 0.72024 0.23663
vn 0.91111 -0.38406 0.14961
vn 0.57554 -0.80697 0.13252
vn 0.00027 -0.99038 0.13841
vn -0.96027 -0.11196 0.25562
vn -0.93801 0.21475 0.27207
vn -0.70670 0.64741 0.28537
vn -0.86175 -0.47450 0.17955
vn -0.55376 -0.81884 0.15118
vn 0.91499 0.33779 0.22065
vn 0.65211 0.72025 0.23663
vn 0.91111 -0.38406 0.14961
vn 0.57554 -0.80697 0.13252
vn 0.00027 -0.99038 0.13841
vn -0.96027 -0.11196 0.25562
vn -0.93801 0.21475 0.27208
vn -0.70670 0.64741 0.28537
vn -0.86175 -0.47450 0.17955
vn -0.55376 -0.81884 0.15118
vn -0.91499 0.33779 0.22065
vn -0.65211 0.72024 0.23663
vn -0.91111 -0.38406 0.14961
vn -0.57554 -0.80697 0.13252
vn -0.00027 -0.99038 0.13841
vn 0.96027 -0.11196 0.25562
vn 0.70670 0.64741 0.28537
vn 0.93801 0.21475 0.27207
vn 0.86175 -0.47450 0.17955
vn 0.55376 -0.81884 0.15118
vn -0.91499 0.33779 0.22065
vn -0.65211 0.72025 0.23663
vn -0.91111 -0.38406 0.14961
vn -0.57554 -0.80697 0.13252
vn -0.00027 -0.99038 0.13841
vn 0.96027 -0.11196 0.25562
vn 0.70670 0.64741 0.28537
vn 0.93801 0.21475 0.27208
vn 0.86175 -0.47450 0.17955
vn 0.55376 -0.81884 0.15118
# 222 normal vertices

g $body
f 13/3/13 14/2/14 2/1/2
f 1/4/1 13/3/13 2/1/2
f 14/2/14 15/6/15 3/5/3
f 2/1/2 14/2/14 3/5/3
f 15/6/15 16/8/16 4/7/4
f 3/5/3 15/6/15 4/7/4
f 16/8/16 17/6/17 5/5/5
f 4/7/4 16/8/16 5/5/5
f 17/6/17 18/2/18 6/1/6
f 5/5/5 17/6/17 6/1/6
f 18/2/18 19/3/19 7/4/7
f 6/1/6 18/2/18 7/4/7
f 19/3/19 20/10/20 8/9/8
f 7/4/7 19/3/19 8/9/8
f 20/10/20 21/12/21 9/11/9
f 8/9/8 20/10/20 9/11/9
f 21/12/21 22/14/22 10/13/10
f 9/11/9 21/12/21 10/13/10
f 22/14/22 23/12/23 11/11/11
f 10/13/10 22/14/22 11/11/11
f 23/12/23 24/10/24 12/9/12
f 11/11/11 23/12/23 12/9/12
f 24/10/24 13/3/13 1/4/1
f 12/9/12 24/10/24 1/4/1
f 9/17/158 10/16/158 11/15/158
f 12/18/158 9/17/158 11/15/158
f 1/20/158 8/19/158 9/17/158
f 12/18/158 1/20/158 9/17/158
f 2/22/158 7/21/158 8/19/158
f 1/20/158 2/22/158 8/19/158
f 2/22/158 3/24/158 6/23/158
f 7/21/158 2/22/158 6/23/158
f 3/24/158 4/26/158 5/25/158
f 6/23/158 3/24/158 5/25/158
f 23/15/159 22/16/159 21/17/159
f 21/17/159 24/18/159 23/15/159
f 21/17/159 13/20/159 24/18/159
f 21/17/159 20/19/159 13/20/159
f 20/19/159 14/22/159 13/20/159
f 20/19/159 19/21/159 14/22/159
f 18/23/159 15/24/159 14/22/159
f 14/22/159 19/21/159 18/23/159
f 18/23/159 17/25/159 15/24/159
f 17/25/159 16/26/159 15/24/159
g $part0
f 27/29/27 28/28/28 29/27/29
f 30/30/30 27/29/27 29/27/29
f 31/33/31 32/32/32 33/31/33
f 34/34/34 31/33/31 33/31/33
f 35/37/35 36/36/36 37/35/37
f 38/38/38 35/37/35 37/35/37
f 39/41/39 40/40/40 41/39/41
f 42/42/42 39/41/39 41/39/41
f 41/39/41 40/40/40 27/29/27
f 30/30/30 41/39/41 27/29/27
f 35/37/35 38/38/38 33/31/33
f 32/32/32 35/37/35 33/31/33
f 45/45/45 46/44/46 43/43/43
f 44/46/44 45/45/45 43/43/43
f 48/49/48 49/48/49 50/47/50
f 47/50/47 48/49/48 50/47/50
f 46/44/46 45/45/45 50/47/50
f 49/48/49 46/44/46 50/47/50
f 43/53/161 31/52/160 26/51/26
f 44/56/163 25/55/25 28/54/162
f 26/51/26 31/52/160 34/57/164
f 29/58/165 28/54/162 25/55/25
f 25/55/25 44/56/163 43/53/161
f 26/51/26 25/55/25 43/53/161
f 39/59/166 47/50/47 50/47/50
f 40/60/167 39/59/166 50/47/50
f 36/62/36 35/61/35 49/48/49
f 48/49/48 36/62/36 49/48/49
f 40/60/167 50/47/50 45/45/45
f 27/63/168 40/60/167 45/45/45
f 45/45/45 44/46/44 28/64/169
f 27/63/168 45/45/45 28/64/169
f 46/44/46 32/66/171 31/65/170
f 43/43/43 46/44/46 31/65/31
f 46/44/46 49/48/49 35/61/35
f 32/66/171 46/44/46 35/61/35
f 37/69/174 36/68/173 39/67/172
f 37/69/174 39/67/172 42/70/174
f 36/68/173 48/71/175 39/67/172
f 48/71/175 47/72/176 39/67/172
f 33/73/178 29/73/177 34/73/159
f 38/73/179 29/73/177 33/73/178
f 37/73/180 29/73/177 38/73/179
f 42/73/181 29/73/177 37/73/180
f 41/73/182 29/73/177 42/73/181
f 41/73/41 30/73/30 29/73/29
f 67/76/67 51/75/51 52/74/52
f 67/76/67 52/74/52 53/77/53
f 67/76/67 53/77/53 54/78/54
f 67/76/67 54/78/54 55/79/55
f 67/76/67 55/79/55 56/80/56
f 67/76/67 56/80/56 57/81/57
f 67/76/67 57/81/57 58/82/58
f 58/82/58 51/75/51 67/76/67
f 69/85/69 70/84/70 61/83/61
f 60/86/60 69/85/69 61/83/61
f 71/89/71 72/88/72 63/87/63
f 62/90/62 71/89/71 63/87/63
f 73/93/73 74/92/74 65/91/65
f 64/94/64 73/93/73 65/91/65
f 59/97/59 66/96/66 75/95/75
f 68/98/68 59/97/59 75/95/75
f 51/75/51 59/97/59 60/86/60
f 52/74/52 51/75/51 60/86/60
f 52/74/52 60/86/60 61/83/61
f 53/77/53 52/74/52 61/83/61
f 61/83/61 62/90/62 54/78/54
f 53/77/53 61/83/61 54/78/54
f 54/78/54 62/90/62 63/87/63
f 55/79/55 54/78/54 63/87/63
f 55/79/55 63/87/63 64/94/64
f 56/80/56 55/79/55 64/94/64
f 56/80/56 64/94/64 65/91/65
f 57/81/57 56/80/56 65/91/65
f 57/81/57 65/91/65 66/96/66
f 58/82/58 57/81/57 66/96/66
f 59/97/59 51/75/51 58/82/58
f 66/96/66 59/97/59 58/82/58
f 74/92/74 75/95/75 66/96/66
f 65/91/65 74/92/74 66/96/66
f 72/88/72 73/93/73 64/94/64
f 63/87/63 72/88/72 64/94/64
f 70/84/70 71/89/71 62/90/62
f 61/83/61 70/84/70 62/90/62
f 68/98/68 69/85/69 60/86/60
f 59/97/59 68/98/68 60/86/60
f 70/84/184 76/99/76 71/89/183
f 76/99/76 72/88/185 71/89/183
f 76/99/76 73/93/186 72/88/185
f 76/99/187 74/92/187 73/93/186
f 70/84/190 69/85/189 76/99/188
f 69/85/189 68/98/191 76/99/188
f 68/98/191 75/95/192 76/99/188
f 76/99/187 75/95/192 74/92/187
f 93/102/93 77/101/77 78/100/78
f 93/102/93 78/100/78 79/103/79
f 93/102/93 79/103/79 80/104/80
f 93/102/93 80/104/80 81/105/81
f 93/102/93 81/105/81 82/106/82
f 93/102/93 82/106/82 83/107/83
f 93/102/93 83/107/83 84/108/84
f 84/108/84 77/101/77 93/102/93
f 95/111/95 96/110/96 87/109/87
f 86/112/86 95/111/95 87/109/87
f 97/115/97 98/114/98 89/113/89
f 88/116/88 97/115/97 89/113/89
f 99/119/99 100/118/100 91/117/91
f 90/120/90 99/119/99 91/117/91
f 85/123/85 92/122/92 101/121/101
f 94/124/94 85/123/85 101/121/101
f 77/101/77 85/123/85 86/112/86
f 78/100/78 77/101/77 86/112/86
f 78/100/78 86/112/86 87/109/87
f 79/103/79 78/100/78 87/109/87
f 87/109/87 88/116/88 80/104/80
f 79/103/79 87/109/87 80/104/80
f 80/104/80 88/116/88 89/113/89
f 81/105/81 80/104/80 89/113/89
f 81/105/81 89/113/89 90/120/90
f 82/106/82 81/105/81 90/120/90
f 82/106/82 90/120/90 91/117/91
f 83/107/83 82/106/82 91/117/91
f 83/107/83 91/117/91 92/122/92
f 84/108/84 83/107/83 92/122/92
f 85/123/85 77/101/77 84/108/84
f 92/122/92 85/123/85 84/108/84
f 100/118/100 101/121/101 92/122/92
f 91/117/91 100/118/100 92/122/92
f 98/114/98 99/119/99 90/120/90
f 89/113/89 98/114/98 90/120/90
f 96/110/96 97/115/97 88/116/88
f 87/109/87 96/110/96 88/116/88
f 94/124/94 95/111/95 86/112/86
f 85/123/85 94/124/94 86/112/86
f 96/110/194 102/125/102 97/115/193
f 102/125/102 98/114/195 97/115/193
f 102/125/102 99/119/196 98/114/195
f 102/125/197 100/118/197 99/119/196
f 96/110/200 95/111/199 102/125/198
f 95/111/199 94/124/201 102/125/198
f 94/124/201 101/121/202 102/125/198
f 102/125/197 101/121/202 100/118/197
f 103/75/103 119/76/119 104/74/104
f 104/74/104 119/76/119 105/77/105
f 105/77/105 119/76/119 106/78/106
f 106/78/106 119/76/119 107/79/107
f 107/79/107 119/76/119 108/80/108
f 108/80/108 119/76/119 109/81/109
f 109/81/109 119/76/119 110/82/110
f 103/75/103 110/82/110 119/76/119
f 122/84/122 121/85/121 113/83/113
f 121/85/121 112/86/112 113/83/113
f 124/88/124 123/89/123 115/87/115
f 123/89/123 114/90/114 115/87/115
f 126/92/126 125/93/125 117/91/117
f 125/93/125 116/94/116 117/91/117
f 118/96/118 111/97/111 127/95/127
f 111/97/111 120/98/120 127/95/127
f 111/97/111 103/75/103 112/86/112
f 103/75/103 104/74/104 112/86/112
f 112/86/112 104/74/104 113/83/113
f 104/74/104 105/77/105 113/83/113
f 114/90/114 113/83/113 106/78/106
f 113/83/113 105/77/105 106/78/106
f 114/90/114 106/78/106 115/87/115
f 106/78/106 107/79/107 115/87/115
f 115/87/115 107/79/107 116/94/116
f 107/79/107 108/80/108 116/94/116
f 116/94/116 108/80/108 117/91/117
f 108/80/108 109/81/109 117/91/117
f 117/91/117 109/81/109 118/96/118
f 109/81/109 110/82/110 118/96/118
f 103/75/103 111/97/111 110/82/110
f 111/97/111 118/96/118 110/82/110
f 127/95/127 126/92/126 118/96/118
f 126/92/126 117/91/117 118/96/118
f 125/93/125 124/88/124 116/94/116
f 124/88/124 115/87/115 116/94/116
f 123/89/123 122/84/122 114/90/114
f 122/84/122 113/83/113 114/90/114
f 121/85/121 120/98/120 112/86/112
f 120/98/120 111/97/111 112/86/112
f 128/99/128 122/84/204 123/89/203
f 124/88/205 128/99/128 123/89/203
f 125/93/206 128/99/128 124/88/205
f 126/92/207 128/99/207 125/93/206
f 121/85/210 122/84/209 128/99/208
f 120/98/211 121/85/210 128/99/208
f 127/95/212 120/98/211 128/99/208
f 127/95/212 128/99/207 126/92/207
f 129/101/129 145/102/145 130/100/130
f 130/100/130 145/102/145 131/103/131
f 131/103/131 145/102/145 132/104/132
f 132/104/132 145/102/145 133/105/133
f 133/105/133 145/102/145 134/106/134
f 134/106/134 145/102/145 135/107/135
f 135/107/135 145/102/145 136/108/136
f 129/101/129 136/108/136 145/102/145
f 148/110/148 147/111/147 139/109/139
f 147/111/147 138/112/138 139/109/139
f 150/114/150 149/115/149 141/113/141
f 149/115/149 140/116/140 141/113/141
f 152/118/152 151/119/151 143/117/143
f 151/119/151 142/120/142 143/117/143
f 144/122/144 137/123/137 153/121/153
f 137/123/137 146/124/146 153/121/153
f 137/123/137 129/101/129 138/112/138
f 129/101/129 130/100/130 138/112/138
f 138/112/138 130/100/130 139/109/139
f 130/100/130 131/103/131 139/109/139
f 140/116/140 139/109/139 132/104/132
f 139/109/139 131/103/131 132/104/132
f 140/116/140 132/104/132 141/113/141
f 132/104/132 133/105/133 141/113/141
f 141/113/141 133/105/133 142/120/142
f 133/105/133 134/106/134 142/120/142
f 142/120/142 134/106/134 143/117/143
f 134/106/134 135/107/135 143/117/143
f 143/117/143 135/107/135 144/122/144
f 135/107/135 136/108/136 144/122/144
f 129/101/129 137/123/137 136/108/136
f 137/123/137 144/122/144 136/108/136
f 153/121/153 152/118/152 144/122/144
f 152/118/152 143/117/143 144/122/144
f 151/119/151 150/114/150 142/120/142
f 150/114/150 141/113/141 142/120/142
f 149/115/149 148/110/148 140/116/140
f 148/110/148 139/109/139 140/116/140
f 147/111/147 146/124/146 138/112/138
f 146/124/146 137/123/137 138/112/138
f 154/125/154 148/110/214 149/115/213
f 150/114/215 154/125/154 149/115/213
f 151/119/216 154/125/154 150/114/215
f 152/118/217 154/125/217 151/119/216
f 147/111/220 148/110/219 154/125/218
f 146/124/221 147/111/220 154/125/218
f 153/121/222 146/124/221 154/125/218
f 153/121/222 154/125/217 152/118/217
f 155/128/155 156/127/156 158/126/155
f 157/129/157 155/128/155 158/126/155
# 284 elements

