# Created by Metasequoia

v 0.000000 0.000000 2.001463
v 0.000000 -0.099337 1.358278
v 0.086029 -0.049669 1.358278
v 0.086029 0.049669 1.358278
v 0.000000 0.099337 1.358278
v -0.086028 0.049669 1.358278
v -0.086028 -0.049669 1.358278
v -0.000000 -0.099337 -2.001416
v 0.086029 -0.049669 -2.001416
v 0.086029 0.049669 -2.001416
v 0.000000 0.099337 -2.001416
v -0.086028 0.049669 -2.001416
v -0.086028 -0.049669 -2.001416
v -0.000000 -0.000000 -1.847298
v 0.178192 0.178195 -1.925141
v 0.035731 0.035733 -1.925141
v 0.178192 0.178195 -0.048024
v 0.035731 0.035733 0.163434
v 0.178192 0.178195 -1.728120
v 0.035731 0.035733 -1.528441
v 0.178192 0.178195 -0.139224
v 0.035731 0.035733 -0.139224
v 0.178192 0.178195 -1.925141
v 0.035731 0.035733 -1.925141
v 0.178192 0.178195 -0.048024
v 0.035731 0.035733 0.163434
v 0.178192 0.178195 -1.728120
v 0.035731 0.035733 -1.528441
v 0.178192 0.178195 -0.139224
v 0.035731 0.035733 -0.139224
v -0.178192 -0.178190 -1.925186
v -0.035731 -0.035729 -1.925186
v -0.178192 -0.178190 -0.048070
v -0.035731 -0.035729 0.163388
v -0.178192 -0.178190 -1.728165
v -0.035731 -0.035729 -1.528487
v -0.178192 -0.178190 -0.139270
v -0.035731 -0.035729 -0.139270
v -0.178192 -0.178190 -1.925186
v -0.035731 -0.035729 -1.925186
v -0.178192 -0.178190 -0.048070
v -0.035731 -0.035729 0.163388
v -0.178192 -0.178190 -1.728165
v -0.035731 -0.035729 -1.528487
v -0.178192 -0.178190 -0.139270
v -0.035731 -0.035729 -0.139270
v 0.178192 -0.178190 -1.925141
v 0.035731 -0.035729 -1.925141
v 0.178192 -0.178190 -0.048024
v 0.035731 -0.035729 0.163434
v 0.178192 -0.178190 -1.728120
v 0.035731 -0.035729 -1.528441
v 0.178192 -0.178190 -0.139224
v 0.035731 -0.035729 -0.139224
v 0.178192 -0.178190 -1.925141
v 0.035731 -0.035729 -1.925141
v 0.178192 -0.178190 -0.048024
v 0.035731 -0.035729 0.163434
v 0.178192 -0.178190 -1.728120
v 0.035731 -0.035729 -1.528441
v 0.178192 -0.178190 -0.139224
v 0.035731 -0.035729 -0.139224
v -0.178192 0.178195 -1.925186
v -0.035731 0.035733 -1.925186
v -0.178192 0.178195 -0.048070
v -0.035731 0.035733 0.163388
v -0.178192 0.178195 -1.728165
v -0.035731 0.035733 -1.528487
v -0.178192 0.178195 -0.139270
v -0.035731 0.035733 -0.139270
v -0.178192 0.178195 -1.925186
v -0.035731 0.035733 -1.925186
v -0.178192 0.178195 -0.048070
v -0.035731 0.035733 0.163388
v -0.178192 0.178195 -1.728165
v -0.035731 0.035733 -1.528487
v -0.178192 0.178195 -0.139270
v -0.035731 0.035733 -0.139270
# 78 vertices

vt 0.02259 0.21869
vt 0.18752 0.31123
vt 0.18752 0.12518
vt 0.97711 0.21869
vt 0.93767 0.12518
vt 0.93767 0.31123
vt 0.92951 0.31123
vt 0.92951 0.12518
vt 0.89199 0.80872
vt 0.93745 0.80872
vt 0.93742 0.43834
vt 0.84578 0.43834
vt 0.51552 0.43834
vt 0.44505 0.43834
vt 0.49427 0.80872
vt 0.51552 0.80872
# 16 texture vertices

vn 0.85588 -0.49414 0.15264
vn -0.11490 -0.99151 0.06093
vn 0.80122 -0.59526 0.06093
vn 0.91612 0.39625 0.06093
vn 0.11489 0.99151 0.06093
vn -0.80122 0.59526 0.06093
vn -0.91612 -0.39625 0.06093
vn 0.00000 0.84053 -0.54176
vn -0.72792 0.42027 -0.54177
vn -0.72792 -0.42027 -0.54177
vn 0.00000 -0.84053 -0.54176
vn 0.72792 -0.42027 -0.54176
vn 0.72792 0.42027 -0.54176
vn 0.70711 -0.70710 0.00000
vn 0.70711 -0.70710 0.00000
vn 0.70711 -0.70710 0.00000
vn 0.70711 -0.70710 0.00000
vn -0.70711 0.70710 0.00000
vn -0.70711 0.70710 0.00000
vn -0.70711 0.70710 0.00000
vn -0.70711 0.70710 0.00000
vn -0.70711 0.70711 0.00000
vn -0.70711 0.70711 0.00000
vn -0.70711 0.70711 0.00000
vn 0.70711 -0.70711 0.00000
vn 0.70711 -0.70711 0.00000
vn 0.70711 -0.70711 0.00000
vn -0.70711 -0.70711 0.00000
vn -0.70711 -0.70711 0.00000
vn 0.70711 0.70711 0.00000
vn 0.70711 0.70711 0.00000
vn 0.70711 0.70710 0.00000
vn 0.70711 0.70710 0.00000
vn 0.70711 0.70710 0.00000
vn -0.70711 -0.70710 -0.00000
vn -0.70711 -0.70710 0.00000
vn -0.70711 -0.70710 0.00000
vn -0.00000 0.98828 0.15264
vn -0.85588 -0.49414 0.15264
vn 0.49999 -0.86603 0.00000
vn 0.49999 -0.86603 0.00000
vn 1.00000 0.00000 0.00000
vn 0.49999 0.86603 0.00000
vn 0.49999 0.86603 0.00000
vn -0.50000 0.86603 0.00000
vn -1.00000 0.00000 0.00000
vn -0.50000 -0.86603 0.00000
# 47 normal vertices

g AIM120
f 2/3/2 3/2/3 1/1/1
f 3/2/3 4/3/4 1/1/1
f 4/3/4 5/2/5 1/1/38
f 5/2/5 6/3/6 1/1/38
f 6/3/6 7/2/7 1/1/39
f 7/2/7 2/3/2 1/1/39
f 9/6/9 8/5/8 14/4/9
f 10/5/10 9/6/9 14/4/9
f 11/6/11 10/5/10 14/4/11
f 12/5/12 11/6/11 14/4/11
f 13/6/13 12/5/12 14/4/13
f 8/5/8 13/6/13 14/4/13
f 8/8/41 9/7/40 3/2/3
f 2/3/2 8/8/41 3/2/3
f 9/7/42 10/8/42 4/3/4
f 3/2/3 9/7/42 4/3/4
f 10/8/44 11/7/43 5/2/5
f 4/3/4 10/8/44 5/2/5
f 11/7/45 12/8/45 6/3/6
f 5/2/5 11/7/45 6/3/6
f 12/8/46 13/7/46 7/2/7
f 6/3/6 12/8/46 7/2/7
f 13/7/47 8/8/47 2/3/2
f 7/2/7 13/7/47 2/3/2
g wing
f 16/11/15 15/10/14 19/9/15
f 20/12/15 16/11/15 19/9/15
f 27/9/19 23/10/18 24/11/19
f 28/12/19 27/9/19 24/11/19
f 32/11/23 31/10/22 35/9/23
f 36/12/22 32/11/23 35/9/23
f 43/9/26 39/10/25 40/11/26
f 44/12/25 43/9/26 40/11/26
f 48/11/29 47/10/28 51/9/29
f 52/12/29 48/11/29 51/9/29
f 59/9/31 55/10/30 56/11/31
f 60/12/31 59/9/31 56/11/31
f 64/11/33 63/10/32 67/9/33
f 68/12/33 64/11/33 67/9/33
f 75/9/36 71/10/35 72/11/36
f 76/12/36 75/9/36 72/11/36
f 17/15/15 18/14/16 22/13/15
f 21/16/17 17/15/15 22/13/15
f 38/13/24 37/16/22 33/15/24
f 34/14/24 38/13/24 33/15/24
f 30/13/19 26/14/20 25/15/19
f 29/16/21 30/13/19 25/15/19
f 46/13/27 42/14/27 41/15/27
f 45/16/25 46/13/27 41/15/27
f 54/13/29 53/16/28 49/15/29
f 50/14/28 54/13/29 49/15/29
f 70/13/32 69/16/34 65/15/32
f 66/14/34 70/13/32 65/15/32
f 57/15/31 61/16/30 62/13/31
f 58/14/30 57/15/31 62/13/31
f 78/13/35 74/14/37 73/15/35
f 77/16/37 78/13/35 73/15/35
# 56 elements

