# Created by Metasequoia

v 0.000000 0.000000 8.943006
v 0.000000 -0.201643 6.826230
v 0.174631 -0.100822 6.826230
v 0.174631 0.100822 6.826230
v 0.000000 0.201643 6.826230
v -0.174631 0.100822 6.826230
v -0.174631 -0.100822 6.826230
v 0.000000 -0.201643 3.040242
v 0.174631 -0.100822 3.040242
v 0.174631 0.100822 3.040242
v 0.000000 0.201643 3.040242
v -0.174631 0.100822 3.040242
v -0.174631 -0.100822 3.040242
v 0.000000 0.000000 0.046002
# 14 vertices

vt 0.49685 0.97209
vt 0.70938 0.75033
vt 0.92192 0.75033
vt 0.28432 0.75033
vt 0.07178 0.75033
vt 0.49685 0.03998
vt 0.92192 0.35368
vt 0.70938 0.35368
vt 0.28432 0.35368
vt 0.07178 0.35368
# 10 texture vertices

vn 0.49830 -0.86310 0.08222
vn 0.49957 -0.86530 0.04114
vn 0.49981 -0.86570 0.02743
vn 0.99962 0.00000 0.02743
vn 0.49981 0.86570 0.02743
vn -0.49981 0.86570 0.02743
vn -0.99962 0.00000 0.02743
vn 0.49990 -0.86587 -0.01941
vn 0.49978 -0.86566 -0.02912
vn 0.99958 0.00000 -0.02912
vn 0.49978 0.86566 -0.02912
vn -0.49978 0.86566 -0.02912
vn -0.99958 0.00000 -0.02912
vn 0.49915 -0.86456 -0.05822
vn 0.99661 0.00000 0.08222
vn 0.99915 0.00000 0.04114
vn 0.49830 0.86310 0.08222
vn 0.49957 0.86530 0.04114
vn -0.49830 0.86310 0.08222
vn -0.49957 0.86530 0.04114
vn -0.99661 0.00000 0.08222
vn -0.99915 0.00000 0.04114
vn -0.49830 -0.86310 0.08222
vn -0.49981 -0.86570 0.02743
vn -0.49957 -0.86530 0.04114
vn 0.99830 0.00000 -0.05822
vn 0.99981 0.00000 -0.01942
vn 0.49915 0.86456 -0.05822
vn 0.49990 0.86587 -0.01941
vn -0.49915 0.86456 -0.05822
vn -0.49990 0.86587 -0.01941
vn -0.99830 0.00000 -0.05822
vn -0.99981 0.00000 -0.01942
vn -0.49915 -0.86456 -0.05822
vn -0.49990 -0.86587 -0.01941
vn -0.49978 -0.86566 -0.02912
# 36 normal vertices

f 2/3/2 3/2/3 1/1/1
f 3/2/16 4/4/4 1/1/15
f 4/4/18 5/5/5 1/1/17
f 5/5/20 6/4/6 1/1/19
f 6/4/22 7/2/7 1/1/21
f 7/2/25 2/3/24 1/1/23
f 9/8/9 8/7/8 14/6/14
f 10/9/10 9/8/27 14/6/26
f 11/10/11 10/9/29 14/6/28
f 12/9/12 11/10/31 14/6/30
f 13/8/13 12/9/33 14/6/32
f 8/7/36 13/8/35 14/6/34
f 8/7/8 9/8/9 3/2/3
f 2/3/2 8/7/8 3/2/3
f 9/8/27 10/9/10 4/4/4
f 3/2/16 9/8/27 4/4/4
f 10/9/29 11/10/11 5/5/5
f 4/4/18 10/9/29 5/5/5
f 11/10/31 12/9/12 6/4/6
f 5/5/20 11/10/31 6/4/6
f 12/9/33 13/8/13 7/2/7
f 6/4/22 12/9/33 7/2/7
f 13/8/35 8/7/36 2/3/24
f 7/2/25 13/8/35 2/3/24
# 24 elements

