# Created by 3DAce v2.72


g
v 0.000000 -0.000000 0.888027
v 0.000000 -0.031860 0.682881
v 0.027592 -0.015930 0.682881
v 0.027592 0.015930 0.682881
v -0.000000 0.031860 0.682881
v -0.027592 0.015930 0.682881
v -0.027592 -0.015930 0.682881
v 0.000000 -0.031860 0.315965
v 0.027592 -0.015930 0.315965
v 0.027592 0.015930 0.315965
v -0.000000 0.031860 0.315965
v -0.027592 0.015930 0.315965
v -0.027592 -0.015930 0.315965
v 0.000000 0.000000 0.025780
# 14 vertices

vt 0.921920 0.750330
vt 0.709380 0.750330
vt 0.496850 0.972090
vt 0.921920 0.750330
vt 0.709380 0.750330
vt 0.284320 0.750330
vt 0.496850 0.972090
vt 0.709380 0.750330
vt 0.284320 0.750330
vt 0.071780 0.750330
vt 0.496850 0.972090
vt 0.284320 0.750330
vt 0.071780 0.750330
vt 0.284320 0.750330
vt 0.496850 0.972090
vt 0.071780 0.750330
vt 0.284320 0.750330
vt 0.709380 0.750330
vt 0.496850 0.972090
vt 0.284320 0.750330
vt 0.709380 0.750330
vt 0.921920 0.750330
vt 0.496850 0.972090
vt 0.709380 0.750330
vt 0.709380 0.353680
vt 0.921920 0.353680
vt 0.496850 0.039980
vt 0.709380 0.353680
vt 0.284320 0.353680
vt 0.709380 0.353680
vt 0.496850 0.039980
vt 0.284320 0.353680
vt 0.071780 0.353680
vt 0.284320 0.353680
vt 0.496850 0.039980
vt 0.071780 0.353680
vt 0.284320 0.353680
vt 0.071780 0.353680
vt 0.496850 0.039980
vt 0.284320 0.353680
vt 0.709380 0.353680
vt 0.284320 0.353680
vt 0.496850 0.039980
vt 0.709380 0.353680
vt 0.921920 0.353680
vt 0.709380 0.353680
vt 0.496850 0.039980
vt 0.921920 0.353680
vt 0.921920 0.353680
vt 0.709380 0.353680
vt 0.709380 0.750330
vt 0.921920 0.353680
vt 0.921920 0.750330
vt 0.921920 0.353680
vt 0.709380 0.750330
vt 0.921920 0.750330
vt 0.709380 0.353680
vt 0.284320 0.353680
vt 0.284320 0.750330
vt 0.709380 0.353680
vt 0.709380 0.750330
vt 0.709380 0.353680
vt 0.284320 0.750330
vt 0.709380 0.750330
vt 0.284320 0.353680
vt 0.071780 0.353680
vt 0.071780 0.750330
vt 0.284320 0.353680
vt 0.284320 0.750330
vt 0.284320 0.353680
vt 0.071780 0.750330
vt 0.284320 0.750330
vt 0.071780 0.353680
vt 0.284320 0.353680
vt 0.284320 0.750330
vt 0.071780 0.353680
vt 0.071780 0.750330
vt 0.071780 0.353680
vt 0.284320 0.750330
vt 0.071780 0.750330
vt 0.284320 0.353680
vt 0.709380 0.353680
vt 0.709380 0.750330
vt 0.284320 0.353680
vt 0.284320 0.750330
vt 0.284320 0.353680
vt 0.709380 0.750330
vt 0.284320 0.750330
vt 0.709380 0.353680
vt 0.921920 0.353680
vt 0.921920 0.750330
vt 0.709380 0.353680
vt 0.709380 0.750330
vt 0.709380 0.353680
vt 0.921920 0.750330
vt 0.709380 0.750330
# 96 texture vertices

vn 0.189101 -0.976767 0.100828
vn 0.690610 -0.719428 0.074043
vn 0.490123 -0.848922 0.197762
vn 0.189101 -0.976767 0.100828
vn 0.940456 -0.324616 0.100829
vn 0.968346 0.238378 0.074043
vn 0.980250 0.000000 0.197764
vn 0.940456 -0.324616 0.100829
vn 0.751350 0.652156 0.100829
vn 0.277729 0.957802 0.074042
vn 0.490123 0.848922 0.197762
vn 0.751350 0.652156 0.100829
vn -0.189101 0.976767 0.100828
vn -0.690610 0.719428 0.074043
vn -0.490124 0.848922 0.197762
vn -0.189101 0.976767 0.100828
vn -0.940456 0.324616 0.100829
vn -0.968346 -0.238378 0.074043
vn -0.980250 0.000000 0.197764
vn -0.940456 0.324616 0.100829
vn -0.751350 -0.652156 0.100829
vn -0.277729 -0.957802 0.074042
vn -0.490124 -0.848922 0.197762
vn -0.751350 -0.652156 0.100829
vn 0.499433 -0.865056 -0.047381
vn 0.499745 -0.865597 -0.031584
vn 0.497749 -0.862140 -0.094656
vn 0.499433 -0.865056 -0.047381
vn 0.998877 0.000000 -0.047382
vn 0.999501 0.000000 -0.031584
vn 0.995510 0.000000 -0.094657
vn 0.998877 0.000000 -0.047382
vn 0.499433 0.865056 -0.047381
vn 0.499745 0.865597 -0.031584
vn 0.497749 0.862140 -0.094656
vn 0.499433 0.865056 -0.047381
vn -0.499433 0.865056 -0.047381
vn -0.499745 0.865597 -0.031584
vn -0.497749 0.862140 -0.094656
vn -0.499433 0.865056 -0.047381
vn -0.998877 0.000000 -0.047382
vn -0.999501 0.000000 -0.031584
vn -0.995510 -0.000000 -0.094657
vn -0.998877 0.000000 -0.047382
vn -0.499433 -0.865056 -0.047381
vn -0.499745 -0.865597 -0.031584
vn -0.497749 -0.862140 -0.094656
vn -0.499433 -0.865056 -0.047381
vn 0.499745 -0.865597 -0.031584
vn 0.499433 -0.865056 -0.047381
vn 0.499498 -0.865170 0.044521
vn 0.499745 -0.865597 -0.031584
vn 0.498877 -0.864094 0.066798
vn 0.499745 -0.865597 -0.031584
vn 0.499498 -0.865170 0.044521
vn 0.498877 -0.864094 0.066798
vn 0.999501 0.000000 -0.031584
vn 0.998877 0.000000 -0.047382
vn 0.999008 0.000000 0.044521
vn 0.999501 0.000000 -0.031584
vn 0.997766 0.000000 0.066799
vn 0.999501 0.000000 -0.031584
vn 0.999008 0.000000 0.044521
vn 0.997766 0.000000 0.066799
vn 0.499745 0.865597 -0.031584
vn 0.499433 0.865056 -0.047381
vn 0.499498 0.865170 0.044521
vn 0.499745 0.865597 -0.031584
vn 0.498877 0.864094 0.066798
vn 0.499745 0.865597 -0.031584
vn 0.499498 0.865170 0.044521
vn 0.498877 0.864094 0.066798
vn -0.499745 0.865597 -0.031584
vn -0.499433 0.865056 -0.047381
vn -0.499498 0.865170 0.044521
vn -0.499745 0.865597 -0.031584
vn -0.498877 0.864094 0.066798
vn -0.499745 0.865597 -0.031584
vn -0.499498 0.865170 0.044521
vn -0.498877 0.864094 0.066798
vn -0.999501 0.000000 -0.031584
vn -0.998877 0.000000 -0.047382
vn -0.999008 0.000000 0.044521
vn -0.999501 0.000000 -0.031584
vn -0.997766 0.000000 0.066799
vn -0.999501 0.000000 -0.031584
vn -0.999008 0.000000 0.044521
vn -0.997766 0.000000 0.066799
vn -0.499745 -0.865597 -0.031584
vn -0.499433 -0.865056 -0.047381
vn -0.499498 -0.865170 0.044521
vn -0.499745 -0.865597 -0.031584
vn -0.498877 -0.864094 0.066798
vn -0.499745 -0.865597 -0.031584
vn -0.499498 -0.865170 0.044521
vn -0.498877 -0.864094 0.066798
# 96 vertex normals

g mat1
f 2/1/1 3/2/2 1/3/3
f 3/5/5 4/6/6 1/7/7
f 4/9/9 5/10/10 1/11/11
f 5/13/13 6/14/14 1/15/15
f 6/17/17 7/18/18 1/19/19
f 7/21/21 2/22/22 1/23/23
f 9/25/25 8/26/26 14/27/27
f 10/29/29 9/30/30 14/31/31
f 11/33/33 10/34/34 14/35/35
f 12/37/37 11/38/38 14/39/39
f 13/41/41 12/42/42 14/43/43
f 8/45/45 13/46/46 14/47/47
f 8/49/49 9/50/50 3/51/51
f 2/53/53 8/54/54 3/55/55
f 9/57/57 10/58/58 4/59/59
f 3/61/61 9/62/62 4/63/63
f 10/65/65 11/66/66 5/67/67
f 4/69/69 10/70/70 5/71/71
f 11/73/73 12/74/74 6/75/75
f 5/77/77 11/78/78 6/79/79
f 12/81/81 13/82/82 7/83/83
f 6/85/85 12/86/86 7/87/87
f 13/89/89 8/90/90 2/91/91
f 7/93/93 13/94/94 2/95/95
# 24 elements

