# Created by Metasequoia

v 0.000000 0.000000 1.970377
v 0.090399 0.052201 1.499307
v 0.000000 0.104400 1.499307
v -0.090399 0.052201 1.499307
v 0.000000 -0.101338 0.483272
v 0.101338 0.000003 0.483272
v 0.000000 0.101338 0.483272
v -0.101338 0.000003 0.483272
v -0.000001 -0.104400 0.571985
v 0.090398 -0.052201 0.571985
v 0.090398 0.134898 0.571985
v -0.090399 0.134898 0.571985
v -0.090399 -0.052201 0.571985
v 0.072551 0.000003 -0.009623
v 0.000000 0.072552 -0.009623
v -0.072552 0.000003 -0.009623
v 0.000000 -0.072551 -0.009623
v -0.000001 -0.104400 1.499307
v 0.090398 -0.052201 1.499307
v 0.090398 0.134898 1.394393
v -0.090399 0.134898 1.394393
v -0.090399 -0.052201 1.499307
v 1.080784 0.120780 0.757496
v 1.116344 0.105852 0.819087
v 1.080784 0.090924 0.757495
v 1.045225 0.105852 0.695905
v 0.085268 0.105852 1.414378
v 0.049707 0.090924 1.352787
v 0.014149 0.105852 1.291196
v 0.049707 0.120780 1.352787
v -1.080784 0.120780 0.757496
v -1.116344 0.105852 0.819087
v -1.080784 0.090924 0.757495
v -1.045225 0.105852 0.695905
v -0.085268 0.105852 1.414378
v -0.049707 0.090924 1.352787
v -0.014149 0.105852 1.291196
v -0.049707 0.120780 1.352787
v 0.085893 0.105716 0.610245
v 0.070200 0.094140 0.668807
v 0.054509 0.105716 0.727368
v 0.070201 0.117291 0.668807
v 0.897001 0.105716 0.827581
v 0.881310 0.094140 0.886143
v 0.865618 0.105716 0.944705
v 0.881310 0.117291 0.886143
v -0.085893 0.105716 0.610245
v -0.070200 0.094140 0.668807
v -0.054509 0.105716 0.727368
v -0.070201 0.117291 0.668807
v -0.897001 0.105716 0.827581
v -0.881310 0.094140 0.886143
v -0.865618 0.105716 0.944705
v -0.881310 0.117291 0.886143
v 0.035520 0.033716 0.009561
v 0.040771 0.028464 0.074250
v 0.035520 0.033716 0.138937
v 0.030269 0.038967 0.074250
v 0.220346 0.218541 0.009561
v 0.220346 0.218541 0.099221
v -0.035520 0.033716 0.009561
v -0.040771 0.028464 0.074250
v -0.035520 0.033716 0.138937
v -0.030269 0.038967 0.074250
v -0.220346 0.218541 0.009561
v -0.220346 0.218541 0.099221
v 0.035520 -0.033716 0.009561
v 0.040771 -0.028464 0.074250
v 0.035520 -0.033716 0.138937
v 0.030269 -0.038967 0.074250
v 0.220346 -0.218541 0.009561
v 0.220346 -0.218541 0.099221
v -0.035520 -0.033716 0.009561
v -0.040771 -0.028464 0.074250
v -0.035520 -0.033716 0.138937
v -0.030269 -0.038967 0.074250
v -0.220346 -0.218541 0.009561
v -0.220346 -0.218541 0.099221
# 78 vertices

vt 0.04594 0.90783
vt 0.25005 0.85985
vt 0.25005 0.95299
vt 0.95287 0.93711
vt 0.95287 0.84389
vt 0.90669 0.84389
vt 0.90669 0.93711
vt 0.68538 0.82594
vt 0.64818 0.85985
vt 0.64818 0.70391
vt 0.25005 0.77071
vt 0.29750 0.70391
vt 0.70426 0.70391
vt 0.68784 0.62528
vt 0.64818 0.54772
vt 0.70430 0.70391
vt 0.64818 0.95299
vt 0.68538 0.95299
vt 0.25076 0.62489
vt 0.29750 0.54772
vt 0.24062 0.53665
vt 0.24041 0.71237
vt 0.54569 0.40648
vt 0.54569 0.34414
vt 0.54569 0.46881
vt 0.02392 0.40648
vt 0.02392 0.34414
vt 0.02392 0.46882
vt 0.02163 0.24247
vt 0.39810 0.24247
vt 0.39810 0.29683
vt 0.02163 0.29683
vt 0.02163 0.18811
vt 0.39810 0.18810
vt 0.89120 0.50364
vt 0.90405 0.23462
vt 0.87076 0.23462
vt 0.93734 0.50364
vt 0.93734 0.23462
# 39 texture vertices

vn 0.84553 -0.48814 0.21635
vn 0.84500 0.45840 0.27542
vn 0.00000 0.91669 0.39961
vn -0.84499 0.45840 0.27542
vn 0.70674 -0.70672 -0.03283
vn 0.82650 -0.56293 0.00411
vn 0.34637 0.82227 -0.45155
vn -0.78862 -0.60717 -0.09701
vn 0.55316 -0.82568 -0.11076
vn 0.99916 0.00000 0.04087
vn 0.99812 0.00000 0.06131
vn -0.99916 0.00000 0.04086
vn -0.99812 0.00000 0.06131
vn 0.00000 0.00000 -1.00000
vn 0.00000 0.00000 -1.00000
vn -0.11511 -0.98956 0.08677
vn 0.86374 -0.49865 0.07278
vn 1.00000 -0.00000 -0.00001
vn -1.00000 -0.00000 -0.00000
vn -0.94286 -0.32542 0.07146
vn 0.86603 0.00002 -0.50000
vn 0.86602 0.00002 -0.50000
vn 0.86603 0.00002 -0.50000
vn 0.10271 -0.97867 0.17790
vn -0.03490 -0.99756 -0.06045
vn -0.10271 -0.97867 -0.17790
vn 0.03490 0.99756 0.06044
vn -0.86603 0.00002 -0.50000
vn -0.86602 0.00002 -0.50000
vn -0.86603 0.00002 -0.50000
vn -0.10271 -0.97867 0.17790
vn 0.03490 -0.99756 -0.06045
vn 0.10271 -0.97867 -0.17790
vn -0.03490 0.99756 0.06044
vn 0.04854 -0.98226 -0.18116
vn 0.01644 -0.99798 -0.06135
vn -0.04854 -0.98226 0.18116
vn -0.01644 0.99798 0.06135
vn 0.04854 -0.98226 -0.18116
vn -0.01644 -0.99798 0.06135
vn -0.04854 -0.98226 0.18116
vn 0.01644 0.99798 -0.06135
vn -0.04854 -0.98226 -0.18116
vn -0.01644 -0.99798 -0.06135
vn 0.04854 -0.98226 0.18116
vn 0.01644 0.99798 0.06135
vn -0.04854 -0.98226 -0.18116
vn 0.01644 -0.99798 0.06135
vn 0.04854 -0.98226 0.18116
vn -0.01644 0.99798 -0.06135
vn 0.70249 -0.70249 -0.11406
vn 0.71785 -0.69620 -0.00000
vn 0.71464 -0.69014 0.11404
vn -0.69620 0.71785 -0.00000
vn 0.71594 -0.69582 -0.05713
vn 0.72196 -0.68957 0.05712
vn -0.70249 -0.70249 -0.11406
vn -0.71785 -0.69620 -0.00000
vn -0.71464 -0.69014 0.11404
vn 0.69620 0.71785 -0.00000
vn -0.71594 -0.69582 -0.05713
vn -0.72196 -0.68957 0.05712
vn 0.70249 0.70249 -0.11406
vn 0.71785 0.69620 -0.00000
vn 0.71464 0.69014 0.11404
vn -0.69620 -0.71785 -0.00000
vn 0.71594 0.69582 -0.05713
vn 0.72196 0.68957 0.05712
vn -0.70249 0.70249 -0.11406
vn -0.71785 0.69620 -0.00000
vn -0.71464 0.69014 0.11404
vn 0.69620 -0.71785 -0.00000
vn -0.71594 0.69582 -0.05713
vn -0.72196 0.68957 0.05712
vn 0.00000 0.97631 0.21637
vn -0.84553 -0.48813 0.21635
vn 0.64840 0.64842 -0.39891
vn 0.13849 0.94667 -0.29093
vn -0.18598 0.90154 -0.39069
vn -0.67914 0.67917 -0.27838
vn 0.48901 -0.84687 -0.20902
vn 0.45636 -0.79033 -0.40880
vn -0.56921 -0.80872 -0.14825
vn -0.70667 -0.70665 -0.03564
vn -0.49520 -0.85759 -0.13899
vn 0.14566 0.94361 0.29729
vn -0.10887 0.96890 0.22220
vn 0.70652 -0.70649 -0.04126
vn 0.70652 -0.70649 -0.04126
vn 0.70649 0.70651 -0.04126
vn 0.70649 0.70651 -0.04126
vn -0.70649 0.70652 -0.04126
vn -0.70649 0.70652 -0.04126
vn -0.70649 0.70652 -0.04126
vn -0.70651 -0.70649 -0.04126
vn -0.70651 -0.70649 -0.04126
vn 0.03490 -0.99756 0.06044
vn 0.10271 -0.97867 0.17790
vn -0.10271 -0.97867 -0.17791
vn -0.03490 0.99756 -0.06045
vn -0.10271 0.97867 -0.17790
vn -0.10271 0.97867 -0.17790
vn 0.10271 0.97867 0.17790
vn 0.10271 0.97867 0.17790
vn -0.03490 -0.99756 0.06044
vn -0.10271 -0.97867 0.17790
vn 0.10271 -0.97867 -0.17791
vn 0.10271 0.97867 -0.17790
vn 0.03490 0.99756 -0.06045
vn 0.10271 0.97867 -0.17790
vn -0.10271 0.97867 0.17790
vn -0.10271 0.97867 0.17790
vn -0.04854 0.98226 0.18114
vn -0.04854 0.98226 0.18114
vn 0.04854 0.98226 -0.18114
vn 0.04854 0.98226 -0.18114
vn 0.04854 0.98226 0.18114
vn 0.04854 0.98226 0.18114
vn -0.04854 0.98226 -0.18114
vn -0.04854 0.98226 -0.18114
vn -0.68957 0.72196 0.05711
vn -0.69013 0.71464 0.11403
vn -0.69582 0.71594 -0.05712
vn -0.70249 0.70250 -0.11405
vn 0.69013 0.71464 0.11403
vn 0.68957 0.72196 0.05711
vn 0.69582 0.71594 -0.05712
vn 0.70249 0.70250 -0.11405
vn -0.69013 -0.71464 0.11403
vn -0.68957 -0.72196 0.05711
vn -0.69582 -0.71594 -0.05712
vn -0.70249 -0.70250 -0.11405
vn 0.68957 -0.72196 0.05711
vn 0.69013 -0.71464 0.11403
vn 0.69582 -0.71594 -0.05712
vn 0.70249 -0.70250 -0.11405
# 136 normal vertices

g SDB1
f 18/3/16 19/2/17 1/1/1
f 19/2/17 2/3/2 1/1/1
f 2/3/2 3/2/3 1/1/75
f 3/2/3 4/3/4 1/1/75
f 4/3/4 22/2/20 1/1/76
f 22/2/20 18/3/16 1/1/76
f 15/6/15 14/5/14 17/4/15
f 16/7/15 15/6/15 17/4/15
f 11/10/11 10/9/10 6/8/6
f 13/9/13 12/10/12 8/8/8
f 20/12/18 2/11/2 19/2/17
f 4/11/4 21/12/19 22/2/20
f 11/10/78 6/8/77 7/13/7
f 12/10/79 11/15/78 7/14/7
f 8/8/80 12/10/79 7/16/7
f 6/8/82 10/9/81 9/17/9
f 5/18/5 6/8/6 9/17/9
f 8/8/8 5/18/84 9/17/83
f 13/9/85 8/8/8 9/17/83
f 2/21/2 20/20/86 3/19/3
f 3/19/3 20/20/86 21/12/87
f 4/22/4 3/19/3 21/12/87
f 17/6/89 14/7/88 6/18/6
f 5/8/5 17/6/89 6/18/6
f 14/7/91 15/6/90 7/8/7
f 6/18/77 14/7/91 7/8/7
f 15/6/93 16/7/92 8/18/80
f 7/8/94 15/6/93 8/18/80
f 16/7/96 17/6/95 5/8/84
f 8/18/8 16/7/96 5/8/84
f 9/17/9 10/9/81 19/2/17
f 18/3/16 9/17/9 19/2/17
f 10/9/10 11/10/11 20/12/18
f 19/2/17 10/9/10 20/12/18
f 11/15/78 12/10/79 21/12/87
f 20/20/86 11/15/78 21/12/87
f 12/10/12 13/9/13 22/2/20
f 21/12/19 12/10/12 22/2/20
f 13/9/85 9/17/83 18/3/16
f 22/2/20 13/9/85 18/3/16
g SDBW1
f 24/24/22 25/23/21 23/23/21
f 25/23/21 26/25/23 23/23/21
f 27/27/24 28/26/25 25/23/97
f 24/24/98 27/27/24 25/23/97
f 28/26/25 29/28/26 26/25/99
f 25/23/97 28/26/25 26/25/99
f 29/28/101 30/26/27 23/23/100
f 26/25/102 29/28/101 23/23/100
f 30/26/27 27/27/104 24/24/103
f 23/23/100 30/26/27 24/24/103
f 31/23/28 33/23/28 32/24/29
f 31/23/28 34/25/30 33/23/28
f 33/23/105 36/26/32 35/27/31
f 33/23/105 35/27/31 32/24/106
f 34/25/107 37/28/33 36/26/32
f 34/25/107 36/26/32 33/23/105
f 31/23/109 38/26/34 37/28/108
f 31/23/109 37/28/108 34/25/110
f 32/24/112 35/27/111 38/26/34
f 32/24/112 38/26/34 31/23/109
g SDBW2
f 43/31/39 44/30/40 40/29/36
f 39/32/35 43/31/39 40/29/36
f 44/30/40 45/34/41 41/33/37
f 40/29/36 44/30/40 41/33/37
f 45/34/113 46/30/42 42/29/38
f 41/33/114 45/34/113 42/29/38
f 46/30/42 43/31/116 39/32/115
f 42/29/38 46/30/42 39/32/115
f 48/29/44 52/30/48 51/31/47
f 48/29/44 51/31/47 47/32/43
f 49/33/45 53/34/49 52/30/48
f 49/33/45 52/30/48 48/29/44
f 50/29/46 54/30/50 53/34/117
f 50/29/46 53/34/117 49/33/118
f 47/32/120 51/31/119 54/30/50
f 47/32/120 54/30/50 50/29/46
g SDBW3
f 57/37/53 56/36/52 60/35/56
f 58/36/54 57/37/122 60/35/121
f 56/36/52 55/39/51 59/38/55
f 60/35/56 56/36/52 59/38/55
f 58/36/54 60/35/121 59/38/123
f 55/39/124 58/36/54 59/38/123
f 66/35/62 62/36/58 63/37/59
f 66/35/126 63/37/125 64/36/60
f 65/38/61 61/39/57 62/36/58
f 65/38/61 62/36/58 66/35/62
f 65/38/127 66/35/126 64/36/60
f 65/38/127 64/36/60 61/39/128
f 72/35/68 68/36/64 69/37/65
f 72/35/130 69/37/129 70/36/66
f 71/38/67 67/39/63 68/36/64
f 71/38/67 68/36/64 72/35/68
f 71/38/131 72/35/130 70/36/66
f 71/38/131 70/36/66 67/39/132
f 75/37/71 74/36/70 78/35/74
f 76/36/72 75/37/134 78/35/133
f 74/36/70 73/39/69 77/38/73
f 78/35/74 74/36/70 77/38/73
f 76/36/72 78/35/133 77/38/135
f 73/39/136 76/36/72 77/38/135
# 100 elements

