# Created by Metasequoia

v 0.000000 -0.088010 0.367145
v 0.076218 -0.044004 0.367145
v 0.076218 0.044004 0.367145
v 0.000000 0.088010 0.367145
v -0.076218 0.044004 0.367145
v -0.076218 -0.044004 0.367145
v 0.000000 -0.088010 0.043393
v 0.076218 -0.044004 0.043393
v 0.076218 0.044004 0.043393
v 0.000000 0.088010 0.043393
v -0.076218 0.044004 0.043393
v -0.076218 -0.044004 0.043393
v 0.000000 -0.084202 0.007335
v 0.072920 -0.042100 0.007335
v 0.072920 0.042100 0.007335
v 0.000000 0.084200 0.007335
v -0.072920 0.042100 0.007335
v -0.072920 -0.042100 0.007335
v 0.000000 -0.075006 -0.007601
v 0.064958 -0.037503 -0.007601
v 0.064958 0.037503 -0.007601
v 0.000000 0.075006 -0.007601
v -0.064958 0.037503 -0.007601
v -0.064958 -0.037503 -0.007601
v 0.000000 0.000000 -0.007601
v 0.000000 0.000000 0.642607
# 26 vertices

vt 0.89477 0.98245
vt 0.98245 0.93182
vt 0.89477 0.88120
vt 0.98245 0.83058
vt 0.89477 0.77996
vt 0.80709 0.83058
vt 0.80709 0.93182
vt 0.12043 0.61063
vt 0.12043 0.98245
vt 0.22331 0.61063
vt 0.25842 0.61063
vt 0.31782 0.98245
vt 0.37721 0.61063
vt 0.41232 0.61063
vt 0.51520 0.98245
vt 0.51520 0.61063
vt 0.61808 0.61063
vt 0.65319 0.61063
vt 0.71258 0.98245
vt 0.77198 0.61063
vt 0.01755 0.61063
vt 0.22331 0.17363
vt 0.12043 0.17363
vt 0.37721 0.17363
vt 0.25842 0.17363
vt 0.51520 0.17363
vt 0.41232 0.17363
vt 0.61808 0.17363
vt 0.77198 0.17363
vt 0.65319 0.17363
vt 0.01755 0.17363
vt 0.21886 0.12496
vt 0.12043 0.12496
vt 0.37464 0.12496
vt 0.26099 0.12496
vt 0.51520 0.12496
vt 0.41677 0.12496
vt 0.61363 0.12496
vt 0.76941 0.12496
vt 0.65576 0.12496
vt 0.02200 0.12496
vt 0.20811 0.10479
vt 0.12043 0.10479
vt 0.36844 0.10479
vt 0.26719 0.10479
vt 0.51520 0.10479
vt 0.42752 0.10479
vt 0.60288 0.10479
vt 0.76321 0.10479
vt 0.66196 0.10479
vt 0.03275 0.10479
# 51 texture vertices

vn -0.11549 -0.98564 0.12319
vn 0.79585 -0.59283 0.12319
vn 0.91133 0.39280 0.12319
vn 0.11549 0.98564 0.12319
vn -0.79585 0.59283 0.12319
vn -0.91133 -0.39280 0.12319
vn 0.49978 -0.86562 -0.03039
vn 0.49909 -0.86442 -0.06078
vn 0.99815 0.00000 -0.06078
vn 0.49908 0.86442 -0.06079
vn -0.49908 0.86442 -0.06079
vn -0.99815 0.00000 -0.06078
vn 0.12729 -0.92198 -0.36571
vn 0.62535 -0.66072 -0.41519
vn 0.88489 0.21120 -0.41517
vn 0.25954 0.87193 -0.41519
vn -0.62535 0.66073 -0.41518
vn -0.88489 -0.21120 -0.41517
vn 0.00000 0.00000 -1.00000
vn 0.82495 -0.47628 0.30434
vn 0.00000 0.95256 0.30434
vn -0.82495 -0.47628 0.30434
vn 0.99954 0.00000 -0.03039
vn 0.49978 0.86562 -0.03039
vn -0.49978 0.86562 -0.03040
vn -0.99954 0.00000 -0.03039
vn -0.49909 -0.86442 -0.06078
vn -0.49978 -0.86562 -0.03039
vn 0.99584 0.00000 -0.09108
vn 0.49793 0.86242 -0.09110
vn -0.49793 0.86242 -0.09110
vn -0.99584 0.00000 -0.09108
vn -0.49793 -0.86242 -0.09108
vn -0.49793 -0.86242 -0.09108
vn 0.80867 -0.28013 -0.51729
vn 0.16174 -0.84035 -0.51735
vn 0.64693 0.56026 -0.51730
vn -0.16173 0.84038 -0.51731
vn -0.80867 0.28013 -0.51729
vn -0.64692 -0.56024 -0.51732
# 40 normal vertices

f 25/3/19 20/2/19 19/1/19
f 25/3/19 21/4/19 20/2/19
f 25/3/19 22/5/19 21/4/19
f 25/3/19 23/6/19 22/5/19
f 25/3/19 24/7/19 23/6/19
f 25/3/19 19/1/19 24/7/19
f 2/10/2 26/9/20 1/8/1
f 3/13/3 26/12/20 2/11/2
f 4/16/4 26/15/21 3/14/3
f 5/17/5 26/15/21 4/16/4
f 6/20/6 26/19/22 5/18/5
f 1/8/1 26/9/22 6/21/6
f 7/23/7 8/22/8 2/10/2
f 1/8/1 7/23/7 2/10/2
f 8/25/23 9/24/9 3/13/3
f 2/11/2 8/25/23 3/13/3
f 9/27/24 10/26/10 4/16/4
f 3/14/3 9/27/24 4/16/4
f 10/26/25 11/28/11 5/17/5
f 4/16/4 10/26/25 5/17/5
f 11/30/26 12/29/12 6/20/6
f 5/18/5 11/30/26 6/20/6
f 12/31/28 7/23/27 1/8/1
f 6/21/6 12/31/28 1/8/1
f 13/33/13 14/32/14 8/22/8
f 7/23/7 13/33/13 8/22/8
f 14/35/29 15/34/15 9/24/9
f 8/25/23 14/35/29 9/24/9
f 15/37/30 16/36/16 10/26/10
f 9/27/24 15/37/30 10/26/10
f 16/36/31 17/38/17 11/28/11
f 10/26/25 16/36/31 11/28/11
f 17/40/32 18/39/18 12/29/12
f 11/30/26 17/40/32 12/29/12
f 18/41/34 13/33/33 7/23/27
f 12/31/28 18/41/34 7/23/27
f 19/43/36 20/42/35 14/32/14
f 13/33/13 19/43/36 14/32/14
f 20/45/35 21/44/37 15/34/15
f 14/35/14 20/45/35 15/34/15
f 21/47/37 22/46/38 16/36/16
f 15/37/15 21/47/37 16/36/16
f 22/46/38 23/48/39 17/38/17
f 16/36/16 22/46/38 17/38/17
f 23/50/39 24/49/40 18/39/18
f 17/40/17 23/50/39 18/39/18
f 24/51/40 19/43/36 13/33/13
f 18/41/18 24/51/40 13/33/13
# 48 elements

