# Created by Metasequoia

v -0.000001 0.000000 1.532909
v -0.060677 -0.035031 1.225222
v -0.000001 -0.070064 1.225222
v 0.060675 -0.035032 1.225222
v 0.060675 0.035032 1.225222
v -0.000001 0.070062 1.225222
v -0.060678 0.035031 1.225222
v -0.060677 -0.035031 -1.662495
v -0.000001 -0.070064 -1.662495
v 0.060675 -0.035032 -1.662495
v 0.060675 0.035032 -1.662495
v -0.000001 0.070062 -1.662495
v -0.060678 0.035031 -1.662495
v -0.000001 -0.000000 -1.606078
v -0.183848 0.183848 -1.614200
v -0.027156 0.027156 -1.614200
v -0.183848 0.183848 -1.121592
v -0.027156 0.027156 -0.913677
v -0.183848 0.183848 -1.614200
v -0.027156 0.027156 -1.614200
v -0.183848 0.183848 -1.121592
v -0.027156 0.027156 -0.913677
v 0.183848 -0.183848 -1.614200
v 0.027156 -0.027156 -1.614200
v 0.183848 -0.183848 -1.121592
v 0.027156 -0.027156 -0.913677
v 0.183848 -0.183848 -1.614200
v 0.027156 -0.027156 -1.614200
v 0.183848 -0.183848 -1.121592
v 0.027156 -0.027156 -0.913677
v 0.183848 0.183848 -1.614200
v 0.027156 0.027156 -1.614200
v 0.183848 0.183848 -1.121592
v 0.027156 0.027156 -0.913677
v 0.183848 0.183848 -1.614200
v 0.027156 0.027156 -1.614200
v 0.183848 0.183848 -1.121592
v 0.027156 0.027156 -0.913677
v -0.183848 -0.183848 -1.614200
v -0.027156 -0.027156 -1.614200
v -0.183848 -0.183848 -1.121592
v -0.027156 -0.027156 -0.913677
v -0.183848 -0.183848 -1.614200
v -0.027156 -0.027156 -1.614200
v -0.183848 -0.183848 -1.121592
v -0.027156 -0.027156 -0.913677
v 0.031197 0.031199 1.167523
v 0.182822 0.182825 0.875660
v 0.031197 0.031199 0.875660
v 0.031197 0.031199 1.167523
v 0.182822 0.182825 0.875660
v 0.031197 0.031199 0.875660
v -0.031199 -0.031198 1.167523
v -0.182824 -0.182823 0.875660
v -0.031199 -0.031198 0.875660
v -0.031199 -0.031198 1.167523
v -0.182824 -0.182823 0.875660
v -0.031199 -0.031198 0.875660
v 0.031196 -0.031199 1.167523
v 0.182824 -0.182824 0.875660
v 0.031196 -0.031199 0.875660
v 0.031196 -0.031199 1.167523
v 0.182824 -0.182824 0.875660
v 0.031196 -0.031199 0.875660
v -0.031198 0.031199 1.167523
v -0.182824 0.182826 0.875660
v -0.031198 0.031199 0.875660
v -0.031198 0.031199 1.167523
v -0.182824 0.182826 0.875660
v -0.031198 0.031199 0.875660
# 70 vertices

vt 0.02208 0.15599
vt 0.10940 0.06281
vt 0.10940 0.24883
vt 0.97607 0.15599
vt 0.95334 0.24883
vt 0.95334 0.06281
vt 0.94502 0.06281
vt 0.94502 0.24883
vt 0.93729 0.37636
vt 0.93729 0.77970
vt 0.82521 0.77970
vt 0.77791 0.37636
vt 0.11306 0.37813
vt 0.18690 0.37813
vt 0.18690 0.80146
# 15 texture vertices

vn -0.00001 -0.97504 0.22203
vn -0.91436 -0.39499 0.08908
vn -0.11512 -0.98935 0.08909
vn 0.79925 -0.59436 0.08908
vn 0.91436 0.39499 0.08908
vn 0.11510 0.98935 0.08908
vn -0.79925 0.59436 0.08908
vn 0.54315 0.31359 -0.77887
vn 0.00000 0.62717 -0.77888
vn -0.54315 0.31358 -0.77888
vn -0.54315 -0.31359 -0.77888
vn 0.00000 -0.62718 -0.77887
vn 0.54315 -0.31359 -0.77888
vn -0.26343 0.45627 -0.84996
vn -0.70711 -0.70711 -0.00000
vn -0.70711 -0.70711 0.00000
vn 0.70711 0.70711 0.00000
vn 0.70711 0.70711 0.00000
vn -0.70711 0.70711 0.00000
vn -0.70711 0.70711 0.00000
vn 0.70711 -0.70711 0.00000
vn 0.70711 -0.70711 0.00000
vn -0.70711 0.70710 0.00000
vn 0.70711 -0.70710 0.00000
vn 0.70711 -0.70711 0.00000
vn -0.70711 0.70711 0.00000
vn 0.70710 0.70711 0.00000
vn -0.70710 -0.70711 0.00000
vn -0.70711 -0.70710 0.00000
vn 0.70711 0.70710 0.00000
vn 0.84441 0.48753 0.22203
vn -0.84441 0.48752 0.22203
vn 0.26343 -0.45627 -0.84995
vn -0.50002 -0.86601 0.00000
vn 0.50001 -0.86602 0.00000
vn 0.50001 -0.86602 0.00000
vn 1.00000 0.00000 0.00000
vn 0.49999 0.86603 0.00000
vn 0.49999 0.86603 0.00000
vn -0.49999 0.86603 0.00000
vn -1.00000 -0.00001 0.00000
vn -1.00000 -0.00001 0.00000
# 42 normal vertices

g AIM9H
f 2/3/2 3/2/3 1/1/1
f 3/2/3 4/3/4 1/1/1
f 4/3/4 5/2/5 1/1/31
f 5/2/5 6/3/6 1/1/31
f 6/3/6 7/2/7 1/1/32
f 7/2/7 2/3/2 1/1/32
f 9/6/9 8/5/8 14/4/14
f 10/5/10 9/6/9 14/4/14
f 11/6/11 10/5/10 14/4/14
f 12/5/12 11/6/11 14/4/33
f 13/6/13 12/5/12 14/4/33
f 8/5/8 13/6/13 14/4/33
f 8/8/34 9/7/34 3/2/3
f 2/3/2 8/8/34 3/2/3
f 9/7/36 10/8/35 4/3/4
f 3/2/3 9/7/36 4/3/4
f 10/8/37 11/7/37 5/2/5
f 4/3/4 10/8/37 5/2/5
f 11/7/39 12/8/38 6/3/6
f 5/2/5 11/7/39 6/3/6
f 12/8/40 13/7/40 7/2/7
f 6/3/6 12/8/40 7/2/7
f 13/7/42 8/8/41 2/3/2
f 7/2/7 13/7/42 2/3/2
g wing
f 17/11/15 15/10/15 16/9/15
f 18/12/16 17/11/15 16/9/15
f 20/9/17 19/10/17 21/11/17
f 22/12/18 20/9/17 21/11/17
f 25/11/17 23/10/17 24/9/17
f 26/12/18 25/11/17 24/9/17
f 28/9/15 27/10/15 29/11/15
f 30/12/16 28/9/15 29/11/15
f 33/11/19 31/10/19 32/9/19
f 34/12/20 33/11/19 32/9/19
f 36/9/21 35/10/21 37/11/21
f 38/12/22 36/9/21 37/11/21
f 41/11/21 39/10/21 40/9/21
f 42/12/22 41/11/21 40/9/21
f 44/9/19 43/10/19 45/11/19
f 46/12/20 44/9/19 45/11/19
f 48/15/23 49/14/23 47/13/23
f 52/14/24 51/15/24 50/13/24
f 54/15/25 55/14/25 53/13/25
f 58/14/26 57/15/26 56/13/26
f 60/15/27 61/14/27 59/13/27
f 64/14/28 63/15/28 62/13/28
f 66/15/29 67/14/29 65/13/29
f 70/14/30 69/15/30 68/13/30
# 48 elements

