# Created by Metasequoia

v 0.000000 0.000000 0.913630
v 0.000000 -0.084683 0.869626
v 0.073338 -0.042341 0.869626
v 0.073338 0.042341 0.869626
v 0.000000 0.084683 0.869626
v -0.073338 0.042341 0.869626
v -0.073338 -0.042341 0.869626
v 0.000000 -0.108127 -0.886967
v 0.093641 -0.054064 -0.886967
v 0.093641 0.054064 -0.886967
v 0.000000 0.108127 -0.886967
v -0.093641 0.054064 -0.886967
v -0.093641 -0.054064 -0.886967
v 0.000000 0.000000 -0.832254
v 0.000000 -0.108127 0.789763
v 0.093641 -0.054064 0.789763
v 0.093641 0.054064 0.789763
v 0.000000 0.108127 0.789763
v -0.093641 0.054064 0.789763
v -0.093641 -0.054064 0.789763
v -0.164745 0.164729 -0.764222
v -0.055763 0.055747 -0.870874
v -0.164745 0.164729 -0.308645
v -0.055763 0.055747 -0.201993
v -0.164745 0.164729 -0.764222
v -0.055763 0.055747 -0.870874
v -0.164745 0.164729 -0.308645
v -0.055763 0.055747 -0.201993
v -0.138852 0.138836 0.490994
v -0.055763 0.055747 0.464103
v -0.138852 0.138836 0.579729
v -0.055763 0.055747 0.606620
v -0.138852 0.138836 0.490994
v -0.055763 0.055747 0.464103
v -0.138852 0.138836 0.579729
v -0.055763 0.055747 0.606620
v 0.164745 -0.164760 -0.764207
v 0.055763 -0.055778 -0.870859
v 0.164745 -0.164760 -0.308630
v 0.055763 -0.055778 -0.201978
v 0.164745 -0.164760 -0.764207
v 0.055763 -0.055778 -0.870859
v 0.164745 -0.164760 -0.308630
v 0.055763 -0.055778 -0.201978
v 0.138852 -0.138867 0.491009
v 0.055763 -0.055778 0.464118
v 0.138852 -0.138867 0.579744
v 0.055763 -0.055778 0.606635
v 0.138852 -0.138867 0.491009
v 0.055763 -0.055778 0.464118
v 0.138852 -0.138867 0.579744
v 0.055763 -0.055778 0.606635
v 0.164745 0.164729 -0.764222
v 0.055763 0.055747 -0.870874
v 0.164745 0.164729 -0.308645
v 0.055763 0.055747 -0.201993
v 0.164745 0.164729 -0.764222
v 0.055763 0.055747 -0.870874
v 0.164745 0.164729 -0.308645
v 0.055763 0.055747 -0.201993
v 0.138852 0.138836 0.490994
v 0.055763 0.055747 0.464103
v 0.138852 0.138836 0.579729
v 0.055763 0.055747 0.606620
v 0.138852 0.138836 0.490994
v 0.055763 0.055747 0.464103
v 0.138852 0.138836 0.579729
v 0.055763 0.055747 0.606620
v -0.164745 -0.164760 -0.764207
v -0.055763 -0.055778 -0.870859
v -0.164745 -0.164760 -0.308630
v -0.055763 -0.055778 -0.201978
v -0.164745 -0.164760 -0.764207
v -0.055763 -0.055778 -0.870859
v -0.164745 -0.164760 -0.308630
v -0.055763 -0.055778 -0.201978
v -0.138852 -0.138867 0.491009
v -0.055763 -0.055778 0.464118
v -0.138852 -0.138867 0.579744
v -0.055763 -0.055778 0.606635
v -0.138852 -0.138867 0.491009
v -0.055763 -0.055778 0.464118
v -0.138852 -0.138867 0.579744
v -0.055763 -0.055778 0.606635
# 84 vertices

vt 0.30843 0.63973
vt 0.36680 0.50463
vt 0.30843 0.36938
vt 0.36680 0.77499
vt 0.30843 0.91009
vt 0.25014 0.77499
vt 0.25014 0.50463
vt 0.96959 0.17418
vt 0.91425 0.06329
vt 0.91425 0.28059
vt 0.96967 0.17418
vt 0.92416 0.38197
vt 0.87090 0.68983
vt 0.64339 0.68983
vt 0.59013 0.38197
vt 0.55410 0.38197
vt 0.54067 0.61669
vt 0.49636 0.61669
vt 0.48293 0.38197
vt 0.90587 0.28059
vt 0.90587 0.06329
vt 0.05435 0.06329
vt 0.05435 0.28059
vt 0.01588 0.08933
vt 0.01588 0.25952
# 25 texture vertices

vn -0.00000 0.00000 1.00000
vn 0.00000 -0.84393 0.53645
vn 0.65690 -0.37926 0.65165
vn 0.75552 0.30387 0.58039
vn 0.00000 0.84393 0.53645
vn -0.65690 0.37926 0.65165
vn -0.75552 -0.30387 0.58039
vn 0.00000 0.45150 -0.89227
vn -0.39101 0.22575 -0.89227
vn -0.39101 -0.22575 -0.89227
vn 0.00000 -0.45150 -0.89227
vn 0.39101 -0.22575 -0.89227
vn 0.39101 0.22575 -0.89227
vn -0.00000 0.00000 -1.00000
vn 0.49828 -0.86306 0.08270
vn 0.78055 -0.58290 0.22576
vn 0.84829 0.48462 0.21340
vn 0.18941 0.96399 0.18668
vn -0.78055 0.58290 0.22576
vn -0.84829 -0.48462 0.21340
vn -0.70711 -0.70711 -0.00000
vn -0.70711 -0.70711 0.00000
vn 0.70711 0.70711 0.00000
vn 0.70711 0.70711 0.00000
vn -0.70711 -0.70711 -0.00000
vn 0.70711 0.70711 0.00000
vn 0.70711 0.70711 0.00000
vn -0.70711 -0.70711 0.00000
vn -0.70711 0.70711 0.00000
vn -0.70711 0.70711 0.00000
vn 0.70711 -0.70711 0.00000
vn 0.70711 -0.70711 0.00000
vn -0.70711 0.70711 0.00000
vn 0.70711 -0.70711 0.00000
vn 0.70711 -0.70711 0.00000
vn -0.70711 0.70711 0.00000
vn 0.50000 -0.86603 0.00000
vn 1.00000 0.00000 0.00000
vn 0.50000 0.86603 0.00000
vn -0.50000 0.86603 0.00000
vn -1.00000 0.00000 0.00000
vn -0.50000 -0.86603 0.00000
vn -0.49613 -0.85933 0.12415
# 43 normal vertices

g AGM114
f 2/3/2 3/2/3 1/1/1
f 3/2/3 4/4/4 1/1/1
f 4/4/4 5/5/5 1/1/1
f 5/5/5 6/6/6 1/1/1
f 6/6/6 7/7/7 1/1/1
f 7/7/7 2/3/2 1/1/1
f 9/10/9 8/9/8 14/8/14
f 10/9/10 9/10/9 14/8/14
f 11/10/11 10/9/10 14/11/14
f 12/9/12 11/10/11 14/11/14
f 13/10/13 12/9/12 14/8/14
f 8/9/8 13/10/13 14/8/14
f 23/14/22 21/13/21 22/12/22
f 24/15/22 23/14/22 22/12/22
f 26/12/24 25/13/23 27/14/24
f 28/15/24 26/12/24 27/14/24
f 31/18/25 29/17/25 30/16/25
f 32/19/25 31/18/25 30/16/25
f 34/16/26 33/17/26 35/18/26
f 36/19/26 34/16/26 35/18/26
f 39/14/27 37/13/27 38/12/27
f 40/15/23 39/14/27 38/12/27
f 42/12/28 41/13/28 43/14/28
f 44/15/21 42/12/28 43/14/28
f 47/18/24 45/17/24 46/16/24
f 48/19/26 47/18/24 46/16/24
f 50/16/22 49/17/22 51/18/22
f 52/19/25 50/16/22 51/18/22
f 55/14/30 53/13/29 54/12/30
f 56/15/30 55/14/30 54/12/30
f 58/12/32 57/13/31 59/14/32
f 60/15/32 58/12/32 59/14/32
f 63/18/33 61/17/33 62/16/33
f 64/19/33 63/18/33 62/16/33
f 66/16/34 65/17/34 67/18/34
f 68/19/34 66/16/34 67/18/34
f 71/14/35 69/13/35 70/12/35
f 72/15/31 71/14/35 70/12/35
f 74/12/36 73/13/36 75/14/36
f 76/15/29 74/12/36 75/14/36
f 79/18/32 77/17/32 78/16/32
f 80/19/34 79/18/32 78/16/32
f 82/16/30 81/17/30 83/18/30
f 84/19/33 82/16/30 83/18/30
f 15/22/15 8/21/37 9/20/37
f 16/23/16 15/22/15 9/20/37
f 2/24/2 15/22/15 16/23/16
f 3/25/3 2/24/2 16/23/16
f 16/23/38 9/20/38 10/21/38
f 17/22/17 16/23/38 10/21/38
f 4/24/4 3/25/3 16/23/16
f 17/22/17 4/24/4 16/23/16
f 17/22/39 10/21/39 11/20/39
f 18/23/18 17/22/39 11/20/39
f 5/25/5 4/24/4 17/22/17
f 18/23/18 5/25/5 17/22/17
f 18/23/40 11/20/40 12/21/40
f 19/22/19 18/23/40 12/21/40
f 5/25/5 18/23/18 19/22/19
f 6/24/6 5/25/5 19/22/19
f 19/22/41 12/21/41 13/20/41
f 20/23/20 19/22/41 13/20/41
f 7/25/7 6/24/6 19/22/19
f 20/23/20 7/25/7 19/22/19
f 20/23/42 13/20/42 8/21/42
f 15/22/43 20/23/42 8/21/42
f 2/24/2 7/25/7 20/23/20
f 15/22/43 2/24/2 20/23/20
# 68 elements

