# Created by Metasequoia

v -0.000001 0.000000 1.662507
v -0.060677 -0.035031 1.354820
v -0.000001 -0.070064 1.354820
v 0.060675 -0.035032 1.354820
v 0.060675 0.035032 1.354820
v -0.000001 0.070062 1.354820
v -0.060678 0.035031 1.354820
v -0.060677 -0.035031 -1.662495
v -0.000001 -0.070064 -1.662495
v 0.060675 -0.035032 -1.662495
v 0.060675 0.035032 -1.662495
v -0.000001 0.070062 -1.662495
v -0.060678 0.035031 -1.662495
v -0.000001 -0.000000 -1.606078
v 0.098010 0.098012 -1.614245
v 0.031197 0.031199 -1.614245
v 0.031197 0.031199 1.274074
v 0.098010 0.098012 -1.522533
v 0.031197 0.031199 -1.355465
v 0.098010 0.098012 1.105810
v 0.031197 0.031199 1.105810
v 0.098010 0.098012 -1.614245
v 0.031197 0.031199 -1.614245
v 0.031197 0.031199 1.274074
v 0.098010 0.098012 -1.522533
v 0.031197 0.031199 -1.355465
v 0.098010 0.098012 1.105810
v 0.031197 0.031199 1.105810
v -0.098011 -0.098010 -1.614245
v -0.031199 -0.031198 -1.614245
v -0.031199 -0.031198 1.274074
v -0.098011 -0.098010 -1.522533
v -0.031199 -0.031198 -1.355465
v -0.098011 -0.098010 1.105810
v -0.031199 -0.031198 1.105810
v -0.098011 -0.098010 -1.614245
v -0.031199 -0.031198 -1.614245
v -0.031199 -0.031198 1.274074
v -0.098011 -0.098010 -1.522533
v -0.031199 -0.031198 -1.355465
v -0.098011 -0.098010 1.105810
v -0.031199 -0.031198 1.105810
v 0.098011 -0.098011 -1.614245
v 0.031196 -0.031199 -1.614245
v 0.031196 -0.031199 1.274074
v 0.098011 -0.098011 -1.522533
v 0.031196 -0.031199 -1.355465
v 0.098011 -0.098011 1.105810
v 0.031196 -0.031199 1.105810
v 0.098011 -0.098011 -1.614245
v 0.031196 -0.031199 -1.614245
v 0.031196 -0.031199 1.274074
v 0.098011 -0.098011 -1.522533
v 0.031196 -0.031199 -1.355465
v 0.098011 -0.098011 1.105810
v 0.031196 -0.031199 1.105810
v -0.098011 0.098013 -1.614245
v -0.031198 0.031199 -1.614245
v -0.031198 0.031199 1.274074
v -0.098011 0.098013 -1.522533
v -0.031198 0.031199 -1.355465
v -0.098011 0.098013 1.105810
v -0.031198 0.031199 1.105810
v -0.098011 0.098013 -1.614245
v -0.031198 0.031199 -1.614245
v -0.031198 0.031199 1.274074
v -0.098011 0.098013 -1.522533
v -0.031198 0.031199 -1.355465
v -0.098011 0.098013 1.105810
v -0.031198 0.031199 1.105810
# 70 vertices

vt 0.02208 0.15599
vt 0.10940 0.06281
vt 0.10940 0.24883
vt 0.97607 0.15599
vt 0.95334 0.24883
vt 0.95334 0.06281
vt 0.94502 0.06281
vt 0.94502 0.24883
vt 0.13642 0.37722
vt 0.18735 0.37722
vt 0.18735 0.64905
vt 0.93711 0.37722
vt 0.93711 0.64905
vt 0.90939 0.64905
vt 0.85878 0.37722
# 15 texture vertices

vn -0.00001 -0.97504 0.22203
vn -0.91436 -0.39499 0.08908
vn -0.11512 -0.98935 0.08909
vn 0.79925 -0.59436 0.08908
vn 0.91436 0.39499 0.08908
vn 0.11510 0.98935 0.08908
vn -0.79925 0.59436 0.08908
vn 0.54315 0.31359 -0.77887
vn 0.00000 0.62717 -0.77888
vn -0.54315 0.31358 -0.77888
vn -0.54315 -0.31359 -0.77888
vn 0.00000 -0.62718 -0.77887
vn 0.54315 -0.31359 -0.77888
vn -0.26343 0.45627 -0.84996
vn -0.70711 0.70711 0.00000
vn -0.70711 0.70711 0.00000
vn -0.70711 0.70711 0.00000
vn 0.70711 -0.70711 0.00000
vn 0.70711 -0.70711 0.00000
vn 0.70711 -0.70711 0.00000
vn 0.70711 -0.70711 0.00000
vn 0.70711 -0.70711 0.00000
vn -0.70711 0.70711 0.00000
vn -0.70711 0.70711 0.00000
vn 0.70709 0.70712 0.00000
vn 0.70709 0.70712 0.00000
vn -0.70709 -0.70712 0.00000
vn -0.70709 -0.70712 0.00000
vn -0.70711 -0.70710 -0.00000
vn -0.70711 -0.70710 0.00000
vn -0.70711 -0.70710 0.00000
vn 0.70711 0.70710 0.00000
vn 0.70711 0.70710 0.00000
vn 0.70711 0.70710 0.00000
vn 0.84441 0.48753 0.22203
vn -0.84441 0.48752 0.22203
vn 0.26343 -0.45627 -0.84995
vn -0.50002 -0.86601 0.00000
vn 0.50001 -0.86602 0.00000
vn 1.00000 0.00000 0.00000
vn 0.49999 0.86603 0.00000
vn -0.49999 0.86603 0.00000
vn -0.49999 0.86603 0.00000
vn -1.00000 -0.00001 0.00000
# 44 normal vertices

g AIM9X
f 2/3/2 3/2/3 1/1/1
f 3/2/3 4/3/4 1/1/1
f 4/3/4 5/2/5 1/1/35
f 5/2/5 6/3/6 1/1/35
f 6/3/6 7/2/7 1/1/36
f 7/2/7 2/3/2 1/1/36
f 9/6/9 8/5/8 14/4/14
f 10/5/10 9/6/9 14/4/14
f 11/6/11 10/5/10 14/4/14
f 12/5/12 11/6/11 14/4/37
f 13/6/13 12/5/12 14/4/37
f 8/5/8 13/6/13 14/4/37
f 8/8/38 9/7/38 3/2/3
f 2/3/2 8/8/38 3/2/3
f 9/7/39 10/8/39 4/3/4
f 3/2/3 9/7/39 4/3/4
f 10/8/40 11/7/40 5/2/5
f 4/3/4 10/8/40 5/2/5
f 11/7/41 12/8/41 6/3/6
f 5/2/5 11/7/41 6/3/6
f 12/8/43 13/7/42 7/2/7
f 6/3/6 12/8/43 7/2/7
f 13/7/44 8/8/44 2/3/2
f 7/2/7 13/7/44 2/3/2
f 20/11/15 21/10/15 17/9/15
f 28/10/18 27/11/18 24/9/18
f 34/11/22 35/10/22 31/9/22
f 42/10/24 41/11/24 38/9/24
f 48/11/25 49/10/25 45/9/25
f 56/10/27 55/11/27 52/9/27
f 62/11/31 63/10/31 59/9/31
f 70/10/34 69/11/34 66/9/34
f 18/14/16 15/13/15 16/12/16
f 19/15/17 18/14/16 16/12/16
f 23/12/19 22/13/18 25/14/19
f 26/15/20 23/12/19 25/14/19
f 32/14/21 29/13/20 30/12/21
f 33/15/21 32/14/21 30/12/21
f 37/12/23 36/13/17 39/14/23
f 40/15/23 37/12/23 39/14/23
f 46/14/26 43/13/25 44/12/26
f 47/15/25 46/14/26 44/12/26
f 51/12/28 50/13/27 53/14/28
f 54/15/27 51/12/28 53/14/28
f 60/14/30 57/13/29 58/12/30
f 61/15/31 60/14/30 58/12/30
f 65/12/33 64/13/32 67/14/33
f 68/15/34 65/12/33 67/14/33
# 48 elements

