# Created by Metasequoia

v -0.008183 -0.012592 -0.050565
v 0.008183 -0.012592 -0.050565
v 0.013240 0.002973 -0.050565
v 0.000000 0.012592 -0.050565
v -0.013240 0.002973 -0.050565
v -0.007902 -0.012206 0.049702
v 0.007902 -0.012206 0.049702
v 0.012786 0.002825 0.049702
v -0.000000 0.012114 0.049702
v -0.012786 0.002825 0.049702
# 10 vertices

vt 0.56708 0.98542
vt 0.56708 0.79079
vt 0.01112 0.78733
vt 0.01112 0.98888
vt 0.56594 0.75268
vt 0.56756 0.56757
vt 0.01163 0.56090
vt 0.00996 0.75258
vt 0.56708 0.54557
vt 0.56708 0.38810
vt 0.01112 0.38810
vt 0.01112 0.55116
vt 0.01112 0.22504
vt 0.56708 0.23064
vt 0.56708 0.20099
vt 0.01112 0.01112
vt 0.01112 0.20281
vt 0.56708 0.01588
vt 0.66836 0.08361
vt 0.93219 0.27530
vt 0.86991 0.08361
vt 0.60608 0.27530
vt 0.76913 0.39377
vt 0.59980 0.87052
vt 0.75726 0.98492
vt 0.91472 0.87052
vt 0.85458 0.68541
vt 0.65994 0.68541
# 28 texture vertices

vn -0.00000 -0.99999 0.00385
vn -0.00000 -0.99999 0.00385
vn 0.95105 -0.30901 0.00385
vn 0.58776 0.80903 0.00386
vn -0.58776 0.80903 0.00386
vn -0.00000 -0.99999 0.00385
vn 0.95105 -0.30902 0.00385
vn 0.58776 0.80903 0.00386
vn -0.58776 0.80903 0.00386
vn 0.95106 -0.30899 0.00385
vn 0.58776 0.80902 0.00386
vn -0.58776 0.80902 0.00386
vn -0.95105 -0.30901 0.00385
vn -0.95106 -0.30899 0.00385
vn -0.95105 -0.30902 0.00385
vn -0.00000 -0.00000 -1.00000
vn -0.00000 -0.00000 -1.00000
vn 0.00000 0.00000 -1.00000
vn -0.00000 -0.00000 -1.00000
vn -0.00000 0.00000 -1.00000
vn 0.00000 -0.00000 1.00000
vn 0.00000 -0.00000 1.00000
vn 0.00000 -0.00000 1.00000
vn -0.00000 0.00000 1.00000
vn -0.00000 0.00000 1.00000
# 25 normal vertices

g obj1
f 2/3/2 7/2/6 6/1/2
f 6/1/2 1/4/1 2/3/2
f 3/7/3 8/6/7 7/5/3
f 7/5/3 2/8/10 3/7/3
f 4/11/4 9/10/8 8/9/4
f 8/9/4 3/12/11 4/11/4
f 9/10/5 4/11/12 5/13/5
f 5/13/5 10/14/9 9/10/5
f 5/17/14 1/16/13 10/15/13
f 1/16/13 6/18/15 10/15/13
f 1/21/18 5/20/17 2/19/16
f 5/20/17 3/22/19 2/19/16
f 5/20/17 4/23/20 3/22/19
f 8/26/23 9/25/22 10/24/21
f 6/28/25 7/27/24 8/26/23
f 8/26/23 10/24/21 6/28/25
# 16 elements

