# Created by Metasequoia

v 0.000000 0.000000 1.012760
v 0.026011 0.000000 0.985377
v 0.013006 0.022526 0.985377
v -0.013006 0.022526 0.985377
v -0.026011 0.000000 0.985377
v -0.013006 -0.022526 0.985377
v 0.013006 -0.022526 0.985377
v 0.036880 0.000000 0.002864
v 0.018440 0.031939 0.002864
v -0.036880 0.000000 0.002864
v -0.018440 -0.031939 0.002864
v 0.018440 -0.031939 0.002864
v -0.018440 0.031939 0.002864
v 0.033378 0.000000 0.921683
v 0.016689 0.028907 0.921683
v -0.016689 0.028907 0.921683
v -0.033378 0.000000 0.921683
v -0.016689 -0.028907 0.921683
v 0.016689 -0.028907 0.921683
v 0.036880 0.000000 0.818882
v 0.018440 0.031939 0.818882
v -0.036880 0.000000 0.818882
v -0.018440 -0.031939 0.818882
v 0.018440 -0.031939 0.818882
v -0.018440 0.031939 0.818882
v -0.011480 0.077167 0.114956
v -0.015292 0.031699 0.114956
v -0.007667 0.031699 0.114956
v -0.011480 0.077167 0.022176
v -0.007667 0.031699 0.022176
v -0.015292 0.031699 0.022176
v 0.072446 -0.028590 0.114956
v 0.034976 -0.002554 0.114956
v 0.031163 -0.009158 0.114956
v 0.072446 -0.028590 0.022176
v 0.031163 -0.009158 0.022176
v 0.034976 -0.002554 0.022176
v -0.061278 -0.048342 0.114956
v -0.023808 -0.022306 0.114956
v -0.019996 -0.028909 0.114956
v -0.061278 -0.048342 0.022176
v -0.019996 -0.028909 0.022176
v -0.023808 -0.022306 0.022176
# 43 vertices

vt 0.11721 0.25017
vt 0.14804 0.33779
vt 0.14804 0.16255
vt 0.02695 0.62724
vt 0.08043 0.37950
vt 0.04478 0.37950
vt 0.08043 0.87499
vt 0.09826 0.62724
vt 0.04478 0.87499
vt 0.20111 0.16255
vt 0.20111 0.33779
vt 0.96866 0.37440
vt 0.96866 0.12594
vt 0.28676 0.12594
vt 0.28676 0.37440
vt 0.95291 0.87463
vt 0.96385 0.50302
vt 0.95291 0.50302
vt 0.85967 0.87463
vt 0.85967 0.50302
vt 0.85025 0.50302
# 21 texture vertices

vn 0.36252 0.62790 0.68872
vn 0.92206 -0.11694 0.36895
vn 0.56231 0.74006 0.36895
vn -0.35976 0.85700 0.36895
vn -0.92206 0.11694 0.36895
vn -0.56231 -0.74006 0.36895
vn 0.35976 -0.85700 0.36895
vn 0.00000 0.00000 -1.00000
vn 0.86350 0.49854 0.07632
vn 0.86481 0.49930 0.05291
vn 0.00000 0.99860 0.05291
vn -0.86481 0.49930 0.05291
vn -0.86422 -0.49895 0.06462
vn 0.00000 -0.99860 0.05291
vn 0.86593 0.49995 0.01474
vn 0.86593 0.49995 0.01474
vn -0.86593 0.49995 0.01474
vn -0.86586 -0.49990 0.01966
vn 0.00000 -0.99989 0.01474
vn 0.00000 0.99989 0.01474
vn 0.00000 0.00000 1.00000
vn -0.72503 0.00000 0.68871
vn 0.36252 -0.62790 0.68872
vn 0.00000 0.99708 0.07632
vn -0.86350 0.49854 0.07632
vn -0.86422 -0.49895 0.06462
vn 0.00000 -0.99708 0.07632
vn 0.86350 -0.49854 0.07632
vn 0.86481 -0.49930 0.05291
vn 0.86602 0.50000 0.00000
vn 0.86602 0.50000 0.00000
vn 0.00000 1.00000 0.00000
vn -0.86602 0.50000 0.00000
vn -0.86602 0.50000 0.00000
vn -0.86593 0.49995 0.01474
vn -0.86603 -0.50000 0.00000
vn -0.86598 -0.49998 0.00983
vn 0.00000 -1.00000 0.00000
vn 0.00000 -0.99989 0.01474
vn 0.86603 -0.50000 0.00000
vn 0.86593 -0.49995 0.01474
vn 0.86593 -0.49995 0.01474
vn 0.99650 0.08356 0.00000
vn -0.99650 0.08356 0.00000
vn -0.42589 -0.90478 0.00000
vn -0.42589 -0.90478 -0.00000
vn 0.57062 0.82122 0.00000
vn 0.42589 -0.90478 0.00000
vn -0.57062 0.82122 0.00000
vn -0.57062 0.82122 0.00000
# 50 normal vertices

g B
f 2/3/2 3/2/3 1/1/1
f 3/3/3 4/2/4 1/1/1
f 4/3/4 5/2/5 1/1/22
f 5/2/5 6/3/6 1/1/22
f 6/3/6 7/2/7 1/1/23
f 7/2/7 2/3/2 1/1/23
f 12/6/8 11/5/8 8/4/8
f 11/5/8 10/8/8 13/7/8
f 13/7/8 9/9/8 8/4/8
f 11/5/8 13/7/8 8/4/8
f 3/2/3 2/3/2 14/10/9
f 15/11/10 3/2/3 14/10/9
f 4/2/4 3/3/3 15/10/24
f 16/11/11 4/2/4 15/10/24
f 5/2/5 4/3/4 16/10/25
f 17/11/12 5/2/5 16/10/25
f 6/3/6 5/2/5 17/11/26
f 18/10/13 6/3/6 17/11/26
f 7/2/7 6/3/6 18/10/27
f 19/11/14 7/2/7 18/10/27
f 2/3/2 7/2/7 19/11/28
f 14/10/29 2/3/2 19/11/28
f 20/14/15 8/13/31 9/12/30
f 21/15/16 20/14/15 9/12/30
f 15/11/10 14/10/9 20/14/15
f 21/15/16 15/11/10 20/14/15
f 21/14/20 9/13/32 13/12/32
f 25/15/20 21/14/20 13/12/32
f 16/11/11 15/10/24 21/14/20
f 25/15/20 16/11/11 21/14/20
f 25/14/35 13/13/34 10/12/33
f 22/15/17 25/14/35 10/12/33
f 17/11/12 16/10/25 25/14/35
f 22/15/17 17/11/12 25/14/35
f 22/15/37 10/12/36 11/13/36
f 23/14/18 22/15/37 11/13/36
f 17/11/26 22/15/37 23/14/18
f 18/10/13 17/11/26 23/14/18
f 23/14/39 11/13/38 12/12/38
f 24/15/19 23/14/39 12/12/38
f 19/11/14 18/10/27 23/14/39
f 24/15/19 19/11/14 23/14/39
f 24/15/41 12/12/40 8/13/40
f 20/14/42 24/15/41 8/13/40
f 14/10/29 19/11/28 24/15/41
f 20/14/42 14/10/29 24/15/41
g w
f 30/18/8 31/17/8 29/16/8
f 27/21/21 28/20/21 26/19/21
f 36/18/8 37/17/8 35/16/8
f 33/21/21 34/20/21 32/19/21
f 41/16/8 43/17/8 42/18/8
f 38/19/21 40/20/21 39/21/21
f 28/20/43 30/18/43 29/16/43
f 26/19/43 28/20/43 29/16/43
f 31/18/44 27/20/44 26/19/44
f 29/16/44 31/18/44 26/19/44
f 34/20/45 36/18/46 35/16/45
f 32/19/46 34/20/45 35/16/45
f 37/18/47 33/20/47 32/19/47
f 35/16/47 37/18/47 32/19/47
f 38/19/48 41/16/48 42/18/48
f 40/20/48 38/19/48 42/18/48
f 41/16/49 38/19/50 39/20/49
f 43/18/50 41/16/49 39/20/49
# 64 elements

