# Created by Metasequoia

v 0.000000 0.000000 0.021383
v 0.000000 0.240257 1.129855
v 0.208069 0.120130 1.129855
v 0.208069 -0.120130 1.129855
v 0.000000 -0.240260 1.129855
v -0.208069 -0.120130 1.129855
v -0.208069 0.120130 1.129855
v 0.000000 0.201773 4.539009
v 0.174741 0.100887 4.539009
v 0.174741 -0.100888 4.539009
v 0.000000 -0.201774 4.539009
v -0.174741 -0.100888 4.539009
v -0.174741 0.100887 4.539009
v 0.000000 0.000000 4.732192
v 0.000000 0.240257 4.399196
v 0.208069 0.120130 4.399196
v 0.208069 -0.120130 4.399196
v 0.000000 -0.240260 4.399196
v -0.208069 -0.120130 4.399196
v -0.208069 0.120130 4.399196
v -0.584800 0.043427 0.656329
v -0.584800 -0.043431 0.656329
v 0.584800 0.043427 0.656329
v 0.584800 -0.043431 0.656329
v 0.584800 0.043427 0.392631
v 0.584800 -0.043431 0.392631
v -0.584800 0.043427 0.392631
v -0.584800 -0.043431 0.392631
v 0.584763 0.366079 0.656329
v 0.584763 -0.366085 0.656329
v 0.662324 0.366079 0.656329
v 0.662324 -0.366085 0.656329
v 0.662324 0.366079 0.392631
v 0.662324 -0.366085 0.392631
v 0.584763 0.366079 0.392631
v 0.584763 -0.366085 0.392631
v -0.584763 0.366079 0.656329
v -0.584763 -0.366085 0.656329
v -0.662324 0.366079 0.656329
v -0.662324 -0.366085 0.656329
v -0.662324 0.366079 0.392631
v -0.662324 -0.366085 0.392631
v -0.584763 0.366079 0.392631
v -0.584763 -0.366085 0.392631
# 44 vertices

vt 0.86760 0.27250
vt 0.66976 0.34189
vt 0.66976 0.41127
vt 0.66976 0.20312
vt 0.66976 0.13374
vt 0.02682 0.27250
vt 0.06130 0.38904
vt 0.06130 0.33077
vt 0.06130 0.21423
vt 0.06130 0.15597
vt 0.08625 0.34189
vt 0.08625 0.41127
vt 0.08625 0.20312
vt 0.08625 0.13374
vt 0.81215 0.59719
vt 0.48426 0.59719
vt 0.48426 0.84508
vt 0.81215 0.84508
vt 0.90231 0.95634
vt 0.90231 0.24892
vt 0.96594 0.95634
vt 0.96594 0.24892
# 22 texture vertices

vn 0.84637 0.48866 -0.21183
vn -0.11507 0.98972 -0.08492
vn 0.79958 0.59452 -0.08492
vn 0.91466 -0.39520 -0.08492
vn 0.11507 -0.98972 -0.08492
vn -0.79959 -0.59451 -0.08492
vn -0.91466 0.39521 -0.08492
vn -0.00000 0.89886 0.43824
vn 0.73998 0.42723 0.51952
vn 0.81490 -0.34136 0.46841
vn 0.11183 -0.87640 0.46842
vn -0.70307 -0.53505 0.46841
vn -0.81490 0.34136 0.46841
vn 0.59891 0.34578 0.72232
vn 0.49848 0.86341 0.07777
vn 0.89409 0.42093 0.15305
vn 0.74930 -0.64891 0.13211
vn -0.18733 -0.97337 0.13212
vn -0.93663 -0.32446 0.13211
vn -0.74930 0.64892 0.13211
vn 0.00000 0.00000 1.00000
vn -0.00000 -0.00000 -1.00000
vn 1.00000 0.00000 0.00000
vn -1.00000 0.00000 0.00000
vn 0.00000 -0.97731 -0.21183
vn -0.84637 0.48866 -0.21183
vn 0.00000 -0.69156 0.72232
vn -0.59891 0.34578 0.72232
vn -0.49658 0.86011 0.11674
vn 0.00000 1.00000 0.00000
vn 0.00000 -1.00000 0.00000
# 31 normal vertices

f 2/3/2 3/2/3 1/1/1
f 3/2/3 4/4/4 1/1/1
f 4/4/4 5/5/5 1/1/25
f 5/5/5 6/4/6 1/1/25
f 6/4/6 7/2/7 1/1/26
f 7/2/7 2/3/2 1/1/26
f 9/8/9 8/7/8 14/6/14
f 10/9/10 9/8/9 14/6/14
f 11/10/11 10/9/10 14/6/27
f 12/9/12 11/10/11 14/6/27
f 13/8/13 12/9/12 14/6/28
f 8/7/8 13/8/13 14/6/28
f 8/7/8 9/8/9 16/11/16
f 15/12/15 8/7/8 16/11/16
f 3/2/3 2/3/2 15/12/15
f 16/11/16 3/2/3 15/12/15
f 16/11/16 9/8/9 10/9/10
f 17/13/17 16/11/16 10/9/10
f 4/4/4 3/2/3 16/11/16
f 17/13/17 4/4/4 16/11/16
f 17/13/17 10/9/10 11/10/11
f 18/14/18 17/13/17 11/10/11
f 5/5/5 4/4/4 17/13/17
f 18/14/18 5/5/5 17/13/17
f 18/14/18 11/10/11 12/9/12
f 19/13/19 18/14/18 12/9/12
f 6/4/6 5/5/5 18/14/18
f 19/13/19 6/4/6 18/14/18
f 19/13/19 12/9/12 13/8/13
f 20/11/20 19/13/19 13/8/13
f 7/2/7 6/4/6 19/13/19
f 20/11/20 7/2/7 19/13/19
f 20/11/20 13/8/13 8/7/8
f 15/12/29 20/11/20 8/7/8
f 2/3/2 7/2/7 20/11/20
f 15/12/29 2/3/2 20/11/20
f 22/16/21 24/15/21 23/15/21
f 21/16/21 22/16/21 23/15/21
f 26/18/22 28/17/22 27/17/22
f 25/18/22 26/18/22 27/17/22
f 21/16/30 23/15/30 25/18/30
f 27/17/30 21/16/30 25/18/30
f 28/17/31 26/18/31 24/15/31
f 22/16/31 28/17/31 24/15/31
f 30/20/21 32/20/21 31/19/21
f 29/19/21 30/20/21 31/19/21
f 32/20/23 34/22/23 33/21/23
f 31/19/23 32/20/23 33/21/23
f 34/22/22 36/22/22 35/21/22
f 33/21/22 34/22/22 35/21/22
f 36/22/24 30/20/24 29/19/24
f 35/21/24 36/22/24 29/19/24
f 29/19/30 31/19/30 33/21/30
f 35/21/30 29/19/30 33/21/30
f 36/22/31 34/22/31 32/20/31
f 30/20/31 36/22/31 32/20/31
f 39/19/21 40/20/21 38/20/21
f 37/19/21 39/19/21 38/20/21
f 41/21/24 42/22/24 40/20/24
f 39/19/24 41/21/24 40/20/24
f 43/21/22 44/22/22 42/22/22
f 41/21/22 43/21/22 42/22/22
f 37/19/23 38/20/23 44/22/23
f 43/21/23 37/19/23 44/22/23
f 41/21/30 39/19/30 37/19/30
f 43/21/30 41/21/30 37/19/30
f 40/20/31 42/22/31 44/22/31
f 38/20/31 40/20/31 44/22/31
# 68 elements

