# Created by Metasequoia

v 0.000000 0.000000 2.590196
v -0.111568 -0.046213 2.590196
v -0.046213 -0.111568 2.590196
v 0.046213 -0.111568 2.590196
v 0.111568 -0.046213 2.590196
v 0.111568 0.046213 2.590196
v 0.046213 0.111568 2.590196
v -0.046213 0.111568 2.590196
v -0.111568 0.046213 2.590196
v -0.075989 -0.031476 0.123416
v -0.031476 -0.075989 0.123416
v 0.031476 -0.075989 0.123416
v 0.075989 -0.031476 0.123416
v 0.075989 0.031476 0.123416
v 0.031476 0.075989 0.123416
v -0.031476 0.075989 0.123416
v -0.075989 0.031476 0.123416
v -0.154288 -0.063908 2.491783
v -0.063908 -0.154288 2.491783
v 0.063908 -0.154288 2.491783
v 0.154288 -0.063908 2.491783
v 0.154288 0.063908 2.491783
v 0.063908 0.154288 2.491783
v -0.063908 0.154288 2.491783
v -0.154288 0.063908 2.491783
v -0.154288 -0.063908 0.688327
v -0.063908 -0.154288 0.688327
v 0.063908 -0.154288 0.688327
v 0.154288 -0.063908 0.688327
v 0.154288 0.063908 0.688327
v 0.063908 0.154288 0.688327
v -0.063908 0.154288 0.688327
v -0.154288 0.063908 0.688327
v 0.000000 0.000000 0.145910
v -0.128930 -0.053404 0.145910
v -0.053404 -0.128930 0.145910
v 0.053404 -0.128930 0.145910
v 0.128930 -0.053404 0.145910
v 0.128930 0.053404 0.145910
v 0.053404 0.128930 0.145910
v -0.053404 0.128930 0.145910
v -0.128930 0.053404 0.145910
v -0.105611 -0.043746 -0.004232
v -0.043746 -0.105611 -0.004232
v 0.043746 -0.105611 -0.004232
v 0.105611 -0.043746 -0.004232
v 0.105611 0.043746 -0.004232
v 0.043746 0.105611 -0.004232
v -0.043746 0.105611 -0.004232
v -0.105611 0.043746 -0.004232
v 0.000000 0.000000 -0.004232
v 0.000000 0.134199 0.551439
v 0.000000 0.221672 0.185817
v 0.000000 0.084050 0.185817
v -0.006760 0.221672 0.438017
v -0.006760 0.121412 0.459085
v 0.006760 0.221672 0.438017
v 0.006760 0.121412 0.459085
v 0.000000 0.221672 0.513728
v 0.000000 -0.134199 0.551439
v 0.000000 -0.221672 0.185817
v 0.000000 -0.084050 0.185817
v -0.006760 -0.221672 0.438017
v -0.006760 -0.121412 0.459085
v 0.006760 -0.221672 0.438017
v 0.006760 -0.121412 0.459085
v 0.000000 -0.221672 0.513728
v 0.134199 0.000000 0.551439
v 0.221672 0.000000 0.185817
v 0.084050 0.000000 0.185817
v 0.221672 0.006760 0.438017
v 0.121412 0.006760 0.459085
v 0.221672 -0.006760 0.438017
v 0.121412 -0.006760 0.459085
v 0.221672 0.000000 0.513728
v -0.134199 0.000000 0.551439
v -0.221672 0.000000 0.185817
v -0.084050 0.000000 0.185817
v -0.221672 0.006760 0.438017
v -0.121412 0.006760 0.459085
v -0.221672 -0.006760 0.438017
v -0.121412 -0.006760 0.459085
v -0.221672 0.000000 0.513728
# 83 vertices

vt 0.09762 0.70315
vt 0.07357 0.47094
vt 0.03955 0.60695
vt 0.12168 0.47094
vt 0.15570 0.60695
vt 0.15570 0.79932
vt 0.12168 0.93536
vt 0.07357 0.93536
vt 0.03955 0.79932
vt 0.07824 0.31108
vt 0.03928 0.28562
vt 0.03928 0.15255
vt 0.07824 0.12706
vt 0.95307 0.17375
vt 0.95307 0.26439
vt 0.73697 0.31108
vt 0.73697 0.12706
vt 0.60561 0.70266
vt 0.58153 0.47005
vt 0.54746 0.60631
vt 0.62970 0.47005
vt 0.66377 0.60631
vt 0.66377 0.79902
vt 0.62970 0.93528
vt 0.58153 0.93528
vt 0.54746 0.79902
vt 0.90264 0.63978
vt 0.97634 0.51766
vt 0.93317 0.34496
vt 0.87211 0.34496
vt 0.82894 0.51766
vt 0.82894 0.76189
vt 0.87211 0.93459
vt 0.93317 0.93459
vt 0.97634 0.76189
vt 0.70317 0.46939
vt 0.78880 0.49188
vt 0.78880 0.69554
vt 0.70317 0.71803
vt 0.32874 0.81129
vt 0.27748 0.82703
vt 0.32874 0.84340
vt 0.49970 0.82703
vt 0.49989 0.81129
vt 0.49989 0.43770
vt 0.31444 0.53912
vt 0.25177 0.57384
vt 0.27736 0.81129
# 48 texture vertices

vn 0.00000 0.00000 1.00000
vn -0.95703 -0.24998 -0.14700
vn -0.49996 -0.85348 -0.14700
vn 0.24998 -0.95703 -0.14700
vn 0.85348 -0.49996 -0.14700
vn 0.95703 0.24998 -0.14700
vn 0.49996 0.85348 -0.14700
vn -0.24998 0.95703 -0.14700
vn -0.85348 0.49996 -0.14700
vn -0.90359 -0.36799 0.21932
vn -0.37873 -0.89915 0.21932
vn 0.36799 -0.90359 0.21932
vn 0.89915 -0.37873 0.21932
vn 0.90359 0.36799 0.21932
vn 0.37873 0.89915 0.21932
vn -0.36799 0.90359 0.21932
vn -0.89915 0.37873 0.21932
vn -0.86051 -0.50407 -0.07375
vn -0.25204 -0.96490 -0.07375
vn 0.50407 -0.86051 -0.07375
vn 0.96490 -0.25204 -0.07375
vn 0.86051 0.50407 -0.07375
vn 0.25204 0.96490 -0.07375
vn -0.50407 0.86051 -0.07375
vn -0.96490 0.25204 -0.07375
vn 0.00000 0.00000 -1.00000
vn 0.99718 0.02969 0.06888
vn 0.00000 1.00000 0.00000
vn 0.99967 -0.00253 -0.02542
vn -0.99890 0.01446 0.04464
vn 0.99890 0.01446 0.04464
vn 0.99718 -0.02969 0.06888
vn -0.00000 -1.00000 -0.00000
vn 0.99967 0.00253 -0.02542
vn -0.99890 -0.01446 0.04464
vn 0.99890 -0.01446 0.04464
vn 0.02969 -0.99718 0.06888
vn 1.00000 0.00000 0.00000
vn -0.00253 -0.99967 -0.02542
vn 0.01446 0.99890 0.04464
vn 0.01446 -0.99890 0.04464
vn -0.02969 -0.99718 0.06888
vn -1.00000 0.00000 0.00000
vn 0.00253 -0.99967 -0.02542
vn -0.01446 0.99890 0.04464
vn -0.01446 -0.99890 0.04464
vn -0.87718 -0.22912 0.42197
vn -0.45825 -0.78227 0.42197
vn 0.22912 -0.87718 0.42197
vn 0.78227 -0.45825 0.42197
vn 0.87718 0.22912 0.42197
vn 0.45825 0.78227 0.42197
vn -0.22912 0.87718 0.42197
vn -0.78227 0.45825 0.42197
vn -0.49858 -0.85114 -0.16427
vn -0.24929 -0.95440 -0.16427
vn -0.85114 -0.49858 -0.16427
vn -0.95440 -0.24929 -0.16427
vn 0.24929 -0.95440 -0.16427
vn 0.49858 -0.85114 -0.16427
vn 0.85114 -0.49858 -0.16427
vn 0.95440 -0.24929 -0.16426
vn 0.95440 0.24929 -0.16426
vn 0.85114 0.49858 -0.16426
vn 0.49858 0.85114 -0.16426
vn 0.24929 0.95440 -0.16427
vn -0.24929 0.95440 -0.16427
vn -0.49858 0.85114 -0.16427
vn -0.85114 0.49858 -0.16427
vn -0.95440 0.24929 -0.16427
vn 0.99991 0.00455 0.01271
vn 0.99964 0.00000 -0.02679
vn 0.99659 0.02419 0.07890
vn -0.99659 0.02419 0.07890
vn -0.99718 0.02969 0.06888
vn -0.99991 0.00455 0.01271
vn -0.99967 -0.00253 -0.02542
vn -0.99964 -0.00000 -0.02679
vn 0.99991 -0.00455 0.01271
vn 0.99659 -0.02419 0.07890
vn -0.99718 -0.02969 0.06888
vn -0.99659 -0.02419 0.07890
vn -0.99991 -0.00455 0.01271
vn -0.99967 0.00253 -0.02542
vn 0.00455 -0.99991 0.01271
vn 0.00000 -0.99964 -0.02679
vn 0.02419 -0.99659 0.07890
vn 0.02419 0.99659 0.07890
vn 0.02969 0.99718 0.06888
vn 0.00455 0.99991 0.01271
vn -0.00253 0.99967 -0.02542
vn 0.00000 0.99964 -0.02679
vn -0.00455 -0.99991 0.01271
vn -0.02419 -0.99659 0.07890
vn -0.02969 0.99718 0.06888
vn -0.02419 0.99659 0.07890
vn -0.00455 0.99991 0.01271
vn 0.00253 0.99967 -0.02542
# 98 normal vertices

f 2/3/1 3/2/1 1/1/1
f 3/2/1 4/4/1 1/1/1
f 4/4/1 5/5/1 1/1/1
f 5/5/1 6/6/1 1/1/1
f 6/6/1 7/7/1 1/1/1
f 7/7/1 8/8/1 1/1/1
f 8/8/1 9/9/1 1/1/1
f 9/9/1 2/3/1 1/1/1
f 3/12/48 2/11/47 18/10/10
f 19/13/11 3/12/48 18/10/10
f 4/11/49 3/12/48 19/13/11
f 20/10/12 4/11/49 19/13/11
f 5/12/50 4/11/49 20/10/12
f 21/13/13 5/12/50 20/10/12
f 6/11/51 5/12/50 21/13/13
f 22/10/14 6/11/51 21/13/13
f 7/12/52 6/11/51 22/10/14
f 23/13/15 7/12/52 22/10/14
f 8/11/53 7/12/52 23/13/15
f 24/10/16 8/11/53 23/13/15
f 9/12/54 8/11/53 24/10/16
f 25/13/17 9/12/54 24/10/16
f 2/11/47 9/12/54 25/13/17
f 18/10/10 2/11/47 25/13/17
f 26/16/18 10/15/2 11/14/3
f 27/17/19 26/16/18 11/14/3
f 19/13/11 18/10/10 26/16/18
f 27/17/19 19/13/11 26/16/18
f 27/17/19 11/14/3 12/15/4
f 28/16/20 27/17/19 12/15/4
f 20/10/12 19/13/11 27/17/19
f 28/16/20 20/10/12 27/17/19
f 28/16/20 12/15/4 13/14/5
f 29/17/21 28/16/20 13/14/5
f 21/13/13 20/10/12 28/16/20
f 29/17/21 21/13/13 28/16/20
f 29/17/21 13/14/5 14/15/6
f 30/16/22 29/17/21 14/15/6
f 22/10/14 21/13/13 29/17/21
f 30/16/22 22/10/14 29/17/21
f 30/16/22 14/15/6 15/14/7
f 31/17/23 30/16/22 15/14/7
f 23/13/15 22/10/14 30/16/22
f 31/17/23 23/13/15 30/16/22
f 31/17/23 15/14/7 16/15/8
f 32/16/24 31/17/23 16/15/8
f 24/10/16 23/13/15 31/17/23
f 32/16/24 24/10/16 31/17/23
f 32/16/24 16/15/8 17/14/9
f 33/17/25 32/16/24 17/14/9
f 25/13/17 24/10/16 32/16/24
f 33/17/25 25/13/17 32/16/24
f 33/17/25 17/14/9 10/15/2
f 26/16/18 33/17/25 10/15/2
f 18/10/10 25/13/17 33/17/25
f 26/16/18 18/10/10 33/17/25
f 35/20/1 36/19/1 34/18/1
f 36/19/1 37/21/1 34/18/1
f 37/21/1 38/22/1 34/18/1
f 38/22/1 39/23/1 34/18/1
f 39/23/1 40/24/1 34/18/1
f 40/24/1 41/25/1 34/18/1
f 41/25/1 42/26/1 34/18/1
f 42/26/1 35/20/1 34/18/1
f 44/29/26 43/28/26 51/27/26
f 45/30/26 44/29/26 51/27/26
f 46/31/26 45/30/26 51/27/26
f 47/32/26 46/31/26 51/27/26
f 48/33/26 47/32/26 51/27/26
f 49/34/26 48/33/26 51/27/26
f 50/35/26 49/34/26 51/27/26
f 43/28/26 50/35/26 51/27/26
f 43/38/57 44/37/56 36/36/55
f 35/39/58 43/38/57 36/36/55
f 44/37/56 45/38/60 37/39/59
f 36/36/55 44/37/56 37/39/59
f 45/38/60 46/37/62 38/36/61
f 37/39/59 45/38/60 38/36/61
f 46/37/62 47/38/64 39/39/63
f 38/36/61 46/37/62 39/39/63
f 47/38/64 48/37/66 40/36/65
f 39/39/63 47/38/64 40/36/65
f 48/37/66 49/38/68 41/39/67
f 40/36/65 48/37/66 41/39/67
f 49/38/68 50/37/70 42/36/69
f 41/39/67 49/38/68 42/36/69
f 50/37/70 43/38/57 35/39/58
f 42/36/69 50/37/70 35/39/58
f 55/42/28 59/41/28 57/40/28
f 53/43/28 55/42/28 57/40/28
f 65/40/33 67/41/33 63/42/33
f 65/40/33 63/42/33 61/43/33
f 71/42/38 75/41/38 73/40/38
f 69/43/38 71/42/38 73/40/38
f 81/40/43 83/41/43 79/42/43
f 81/40/43 79/42/43 77/43/43
f 54/45/29 53/44/72 57/40/71
f 58/46/31 54/45/29 57/40/71
f 59/48/73 52/47/27 58/46/31
f 57/40/71 59/48/73 58/46/31
f 56/46/30 52/47/75 59/48/74
f 55/40/76 56/46/30 59/48/74
f 54/45/77 56/46/30 55/40/76
f 53/44/78 54/45/77 55/40/76
f 65/40/79 61/44/72 62/45/34
f 66/46/36 65/40/79 62/45/34
f 66/46/36 60/47/32 67/48/80
f 65/40/79 66/46/36 67/48/80
f 67/48/82 60/47/81 64/46/35
f 63/40/83 67/48/82 64/46/35
f 63/40/83 64/46/35 62/45/84
f 61/44/78 63/40/83 62/45/84
f 70/45/39 69/44/86 73/40/85
f 74/46/41 70/45/39 73/40/85
f 75/48/87 68/47/37 74/46/41
f 73/40/85 75/48/87 74/46/41
f 72/46/40 68/47/89 75/48/88
f 71/40/90 72/46/40 75/48/88
f 70/45/91 72/46/40 71/40/90
f 69/44/92 70/45/91 71/40/90
f 81/40/93 77/44/86 78/45/44
f 82/46/46 81/40/93 78/45/44
f 82/46/46 76/47/42 83/48/94
f 81/40/93 82/46/46 83/48/94
f 83/48/96 76/47/95 80/46/45
f 79/40/97 83/48/96 80/46/45
f 79/40/97 80/46/45 78/45/98
f 77/44/92 79/40/97 78/45/98
# 128 elements

