# Created by Metasequoia

v 0.010697 -0.270135 1.460987
v -0.176960 -0.192405 1.460987
v -0.254690 -0.014393 1.460987
v -0.176960 0.173264 1.460987
v -0.008407 0.260639 1.460987
v 0.160147 0.156854 1.460987
v 0.252858 -0.004748 1.460987
v 0.198354 -0.192405 1.460987
v 0.010697 -0.127264 0.424840
v -0.075935 -0.091380 0.424840
v -0.111819 -0.004748 0.424840
v -0.075935 0.081884 0.424840
v 0.010697 0.117768 0.424840
v 0.083788 0.081884 0.424840
v 0.133213 -0.004748 0.424840
v 0.097329 -0.091380 0.424840
v 0.010697 -0.004748 0.331014
v -0.000000 -0.009645 7.415027
v -0.000000 0.130632 7.415027
v -0.099191 0.089545 7.415027
v -0.140277 -0.009645 7.415027
v -0.099191 -0.108835 7.415027
v -0.000000 -0.149921 7.415027
v 0.099190 -0.108835 7.415027
v 0.140276 -0.009645 7.415027
v 0.099190 0.089545 7.415027
v -0.000000 0.243911 7.197303
v -0.179291 0.169646 7.197303
v -0.253556 -0.009645 7.197303
v -0.179291 -0.188936 7.197303
v -0.000000 -0.263201 7.197303
v 0.179291 -0.188936 7.197303
v 0.253556 -0.009645 7.197303
v 0.179291 0.169646 7.197303
v 0.000000 0.243911 1.458089
v -0.353553 0.353553 0.994957
v -0.353553 -0.353553 0.994957
v 0.353554 -0.353553 0.994957
v 0.353554 0.353553 0.994957
v -0.353553 0.353553 -0.005042
v -0.353553 -0.353553 -0.005042
v 0.353554 -0.353553 -0.005042
v 0.353554 0.353553 -0.005042
v 0.325604 -0.325604 0.616806
v -0.325603 -0.325604 0.616806
v 0.325604 0.325603 0.616806
v -0.325603 0.325603 0.616806
v 0.276191 0.276190 0.442799
v 0.276191 -0.276191 0.442799
v -0.276191 0.276190 0.442799
v -0.276191 -0.276191 0.442799
v 0.348734 0.011717 1.137431
v 0.348734 -0.011717 0.530476
v -0.348734 0.011717 1.137431
v -0.348734 -0.011717 0.530476
v 0.197635 0.011717 1.282456
v -0.197635 0.011717 1.282456
v 0.011718 -0.348733 1.137431
v -0.011717 -0.348733 0.530476
v 0.011718 0.348735 1.137431
v -0.011717 0.348735 0.530476
v 0.011718 -0.197635 1.282456
v 0.011718 0.197635 1.282456
# 63 vertices

vt 0.98827 0.11270
vt 0.99838 0.16011
vt 0.98843 0.12659
vt 0.98850 0.16011
vt 0.98843 0.19364
vt 0.98827 0.20753
vt 0.98813 0.19364
vt 0.98804 0.16011
vt 0.98810 0.12659
vt 0.87697 0.08749
vt 0.87661 0.05741
vt 0.87711 0.15638
vt 0.87697 0.22901
vt 0.87665 0.26282
vt 0.87633 0.22265
vt 0.87616 0.16011
vt 0.87626 0.08749
vt 0.23504 0.15822
vt 0.23522 0.19661
vt 0.23504 0.21251
vt 0.23530 0.15822
vt 0.23522 0.11983
vt 0.23504 0.10393
vt 0.23485 0.11983
vt 0.23477 0.15822
vt 0.23485 0.19661
vt 0.25884 0.22761
vt 0.25850 0.25635
vt 0.25898 0.15822
vt 0.25884 0.08883
vt 0.25850 0.06009
vt 0.25816 0.08883
vt 0.25802 0.15822
vt 0.25816 0.22761
vt 0.87695 0.25635
vt 0.08780 0.47347
vt 0.09191 0.97072
vt 0.15340 0.94614
vt 0.14928 0.44888
vt 0.28461 0.47347
vt 0.28049 0.97072
vt 0.35433 0.97072
vt 0.35021 0.47347
vt 0.23069 0.47076
vt 0.21900 0.94614
vt 0.01808 0.97072
vt 0.02219 0.47347
vt 0.38856 0.39893
vt 0.38856 0.89001
vt 0.59300 0.89344
vt 0.59153 0.39722
vt 0.48902 0.39037
vt 0.38066 0.64362
vt 0.48902 0.89686
vt 0.59738 0.64362
vt 0.80539 0.23125
vt 0.82033 0.23127
vt 0.82042 0.23197
vt 0.80544 0.23165
vt 0.88292 0.23996
vt 0.88301 0.24066
vt 0.80534 0.30285
vt 0.82025 0.35456
vt 0.82049 0.11665
vt 0.80548 0.16802
vt 0.88285 0.35528
vt 0.88309 0.11737
# 67 texture vertices

vn 0.13647 -0.98837 -0.06714
vn -0.65789 -0.74903 -0.07825
vn -0.99441 -0.09039 -0.05452
vn -0.80228 0.59335 -0.06545
vn 0.03459 0.99068 -0.13172
vn 0.69214 0.71979 -0.05328
vn 0.98326 0.17631 -0.04606
vn 0.81780 -0.57184 -0.06484
vn -0.08650 -0.89518 -0.43724
vn -0.60765 -0.60765 -0.51139
vn -0.92137 -0.00321 -0.38867
vn -0.58679 0.68289 -0.43513
vn 0.02890 0.85827 -0.51238
vn 0.59416 0.69557 -0.40393
vn 0.92206 0.08033 -0.37863
vn 0.57182 -0.69415 -0.43724
vn 0.00435 0.01248 -0.99991
vn 0.00000 0.00000 1.00000
vn 0.02464 0.97027 0.24076
vn -0.67999 0.69293 0.23972
vn -0.97087 0.00696 0.23950
vn -0.74860 -0.63495 0.19091
vn -0.06021 -0.96011 0.27306
vn 0.68139 -0.69123 0.24066
vn 0.97108 0.01208 0.23844
vn 0.67618 0.69776 0.23645
vn -0.10049 0.99494 0.00016
vn -1.00000 0.00000 -0.00000
vn 0.00000 -1.00000 0.00000
vn 1.00000 0.00000 0.00000
vn 0.00000 0.00000 1.00000
vn 0.00000 -0.99981 0.01929
vn 0.00000 -0.99926 0.03858
vn -0.99981 0.00000 0.01929
vn -0.99926 0.00000 0.03858
vn -0.99926 0.00000 0.03858
vn -1.00000 0.00000 -0.00000
vn -0.53666 0.70860 0.45813
vn 0.12158 0.88053 0.45813
vn -0.88053 0.12158 0.45813
vn -0.62728 -0.62728 0.46155
vn 0.00000 -0.88711 0.46155
vn 0.53666 -0.70860 0.45813
vn 0.88053 -0.12158 0.45813
vn 0.70860 0.53666 0.45813
vn 0.00000 1.00000 0.00000
vn 0.00000 0.00000 -1.00000
vn -0.00000 -0.00000 -1.00000
vn 0.00000 0.99981 -0.01929
vn 0.00000 0.99926 -0.03858
vn 0.99981 0.00000 -0.01929
vn 0.99926 0.00000 -0.03858
vn 0.99926 0.00000 -0.03858
vn 1.00000 0.00000 0.00000
# 54 normal vertices

f 10/3/10 17/2/17 9/1/9
f 11/4/11 17/2/17 10/3/10
f 12/5/12 17/2/17 11/4/11
f 13/6/13 17/2/17 12/5/12
f 14/7/14 17/2/17 13/6/13
f 15/8/15 17/2/17 14/7/14
f 16/9/16 17/2/17 15/8/15
f 9/1/9 17/2/17 16/9/16
f 2/10/2 10/3/10 9/1/9
f 1/11/1 2/10/2 9/1/9
f 11/4/11 10/3/10 2/10/2
f 3/12/3 11/4/11 2/10/2
f 4/13/4 12/5/12 11/4/11
f 3/12/3 4/13/4 11/4/11
f 5/14/5 13/6/13 12/5/12
f 4/13/4 5/14/5 12/5/12
f 14/7/14 13/6/13 5/14/5
f 6/15/6 14/7/14 5/14/5
f 15/8/15 14/7/14 6/15/6
f 7/16/7 15/8/15 6/15/6
f 8/17/8 16/9/16 15/8/15
f 7/16/7 8/17/8 15/8/15
f 1/11/1 9/1/9 16/9/16
f 8/17/8 1/11/1 16/9/16
f 19/20/18 20/19/18 18/18/18
f 20/19/18 21/21/18 18/18/18
f 21/21/18 22/22/18 18/18/18
f 22/22/18 23/23/18 18/18/18
f 23/23/18 24/24/18 18/18/18
f 24/24/18 25/25/18 18/18/18
f 25/25/18 26/26/18 18/18/18
f 26/26/18 19/20/18 18/18/18
f 27/28/19 28/27/20 20/19/38
f 19/20/39 27/28/19 20/19/38
f 28/27/20 29/29/21 21/21/40
f 20/19/38 28/27/20 21/21/40
f 29/29/21 30/30/22 22/22/41
f 21/21/40 29/29/21 22/22/41
f 31/31/23 23/23/42 22/22/41
f 30/30/22 31/31/23 22/22/41
f 31/31/23 32/32/24 24/24/43
f 23/23/42 31/31/23 24/24/43
f 32/32/24 33/33/25 25/25/44
f 24/24/43 32/32/24 25/25/44
f 33/33/25 34/34/26 26/26/45
f 25/25/44 33/33/25 26/26/45
f 34/34/26 27/28/19 19/20/39
f 26/26/45 34/34/26 19/20/39
f 35/35/27 4/13/4 28/27/20
f 27/28/19 35/35/27 28/27/20
f 4/13/4 3/12/3 29/29/21
f 28/27/20 4/13/4 29/29/21
f 3/12/3 2/10/2 30/30/22
f 29/29/21 3/12/3 30/30/22
f 2/10/2 1/11/1 31/31/23
f 30/30/22 2/10/2 31/31/23
f 1/11/1 8/17/8 32/32/24
f 31/31/23 1/11/1 32/32/24
f 8/17/8 7/16/7 33/33/25
f 32/32/24 8/17/8 33/33/25
f 7/16/7 6/15/6 34/34/26
f 33/33/25 7/16/7 34/34/26
f 6/15/6 35/35/27 27/28/19
f 34/34/26 6/15/6 27/28/19
f 40/38/28 41/37/28 37/36/28
f 36/39/28 40/38/28 37/36/28
f 41/42/29 42/41/29 38/40/29
f 37/43/29 41/42/29 38/40/29
f 42/41/30 43/45/30 39/44/30
f 38/40/30 42/41/30 39/44/30
f 43/45/46 40/38/46 36/39/46
f 39/44/46 43/45/46 36/39/46
f 37/36/30 41/37/30 40/38/30
f 37/36/30 40/38/30 36/39/30
f 38/47/46 42/46/46 41/37/46
f 38/47/46 41/37/46 37/36/46
f 39/44/28 43/45/28 42/41/28
f 39/44/28 42/41/28 38/40/28
f 36/39/29 40/38/29 43/45/29
f 36/39/29 43/45/29 39/44/29
f 46/50/18 47/49/18 45/48/18
f 44/51/18 46/50/18 45/48/18
f 44/51/47 45/48/47 47/49/47
f 46/50/47 44/51/47 47/49/47
f 50/54/18 51/53/31 49/52/18
f 48/55/31 50/54/18 49/52/18
f 48/55/47 49/52/48 51/53/47
f 50/54/48 48/55/47 51/53/47
f 54/58/32 52/57/32 56/56/29
f 57/59/29 54/58/32 56/56/29
f 54/58/32 55/61/33 53/60/33
f 52/57/32 54/58/32 53/60/33
f 55/61/50 54/58/49 52/57/49
f 53/60/50 55/61/50 52/57/49
f 52/57/49 54/58/49 57/59/46
f 56/56/46 52/57/49 57/59/46
f 60/64/34 58/63/34 62/62/37
f 63/65/37 60/64/34 62/62/37
f 60/64/34 61/67/36 59/66/35
f 58/63/34 60/64/34 59/66/35
f 61/67/52 60/64/51 58/63/51
f 59/66/53 61/67/52 58/63/51
f 58/63/51 60/64/51 63/65/54
f 62/62/54 58/63/51 63/65/54
# 104 elements

