# Created by 3DAce v2.72


g
v -0.281001 0.000303 -0.052366
v -0.281001 0.000303 0.052366
v 0.046151 0.000303 -0.052366
v 0.046151 0.000303 0.052366
v -0.192758 0.052670 0.000000
v -0.192758 -0.052063 0.000000
v -0.519910 0.052670 0.000000
v -0.519910 -0.052063 0.000000
v 0.189422 0.000303 -0.052366
v 0.189422 0.000303 0.052366
v 0.516573 0.000303 -0.052366
v 0.516573 0.000303 0.052366
v 0.279510 0.052670 0.000000
v 0.279510 -0.052063 0.000000
v -0.047642 0.052670 0.000000
v -0.047642 -0.052063 0.000000
# 16 vertices

vt 0.912590 0.163620
vt 0.912590 0.843380
vt 0.440500 0.843380
vt 0.912590 0.163620
vt 0.440500 0.163620
vt 0.912590 0.163620
vt 0.440500 0.843380
vt 0.440500 0.163620
vt 0.912590 0.843380
vt 0.912590 0.163620
vt 0.440500 0.163620
vt 0.912590 0.843380
vt 0.440500 0.843380
vt 0.912590 0.843380
vt 0.440500 0.163620
vt 0.440500 0.843380
vt 0.440500 0.843380
vt 0.912590 0.843380
vt 0.912590 0.163620
vt 0.440500 0.843380
vt 0.440500 0.163620
vt 0.440500 0.843380
vt 0.912590 0.163620
vt 0.440500 0.163620
vt 0.440500 0.163620
vt 0.912590 0.163620
vt 0.912590 0.843380
vt 0.440500 0.163620
vt 0.440500 0.843380
vt 0.440500 0.163620
vt 0.912590 0.843380
vt 0.440500 0.843380
vt 0.912590 0.163620
vt 0.912590 0.843380
vt 0.440500 0.843380
vt 0.912590 0.163620
vt 0.440500 0.163620
vt 0.912590 0.163620
vt 0.440500 0.843380
vt 0.440500 0.163620
vt 0.912590 0.843380
vt 0.912590 0.163620
vt 0.440500 0.163620
vt 0.912590 0.843380
vt 0.440500 0.843380
vt 0.912590 0.843380
vt 0.440500 0.163620
vt 0.440500 0.843380
vt 0.440500 0.843380
vt 0.912590 0.843380
vt 0.912590 0.163620
vt 0.440500 0.843380
vt 0.440500 0.163620
vt 0.440500 0.843380
vt 0.912590 0.163620
vt 0.440500 0.163620
vt 0.440500 0.163620
vt 0.912590 0.163620
vt 0.912590 0.843380
vt 0.440500 0.163620
vt 0.440500 0.843380
vt 0.440500 0.163620
vt 0.912590 0.843380
vt 0.440500 0.843380
# 64 texture vertices

vn 0.000000 1.000000 0.000000
vn 0.000000 1.000000 -0.000000
vn 0.000000 1.000000 0.000000
vn 0.000000 1.000000 0.000000
vn 0.000000 1.000000 0.000000
vn 0.000000 1.000000 0.000000
vn 0.000000 1.000000 0.000000
vn 0.000000 1.000000 0.000000
vn 0.000000 -1.000000 0.000000
vn 0.000000 -1.000000 0.000000
vn 0.000000 -1.000000 0.000000
vn 0.000000 -1.000000 0.000000
vn 0.000000 -1.000000 0.000000
vn 0.000000 -1.000000 0.000000
vn 0.000000 -1.000000 0.000000
vn 0.000000 -1.000000 0.000000
vn 0.000000 -0.000000 1.000000
vn 0.000000 -0.000000 1.000000
vn 0.000000 -0.000000 1.000000
vn 0.000000 -0.000000 1.000000
vn 0.000000 -0.000000 1.000000
vn 0.000000 -0.000000 1.000000
vn 0.000000 -0.000000 1.000000
vn 0.000000 -0.000000 1.000000
vn 0.000000 0.000000 -1.000000
vn 0.000000 0.000000 -1.000000
vn 0.000000 0.000000 -1.000000
vn 0.000000 0.000000 -1.000000
vn 0.000000 0.000000 -1.000000
vn 0.000000 0.000000 -1.000000
vn 0.000000 0.000000 -1.000000
vn 0.000000 0.000000 -1.000000
vn 0.000000 1.000000 0.000000
vn 0.000000 1.000000 -0.000000
vn 0.000000 1.000000 0.000000
vn 0.000000 1.000000 0.000000
vn 0.000000 1.000000 0.000000
vn 0.000000 1.000000 0.000000
vn 0.000000 1.000000 0.000000
vn 0.000000 1.000000 0.000000
vn 0.000000 -1.000000 0.000000
vn 0.000000 -1.000000 0.000000
vn 0.000000 -1.000000 0.000000
vn 0.000000 -1.000000 0.000000
vn 0.000000 -1.000000 0.000000
vn 0.000000 -1.000000 0.000000
vn 0.000000 -1.000000 0.000000
vn 0.000000 -1.000000 0.000000
vn 0.000000 -0.000000 1.000000
vn 0.000000 -0.000000 1.000000
vn 0.000000 -0.000000 1.000000
vn 0.000000 -0.000000 1.000000
vn 0.000000 -0.000000 1.000000
vn 0.000000 -0.000000 1.000000
vn 0.000000 -0.000000 1.000000
vn 0.000000 -0.000000 1.000000
vn 0.000000 0.000000 -1.000000
vn 0.000000 0.000000 -1.000000
vn 0.000000 0.000000 -1.000000
vn 0.000000 0.000000 -1.000000
vn 0.000000 0.000000 -1.000000
vn 0.000000 0.000000 -1.000000
vn 0.000000 0.000000 -1.000000
vn 0.000000 0.000000 -1.000000
# 64 vertex normals

g mat1
f 2/1/1 4/2/2 3/3/3
f 1/5/5 2/6/6 3/7/7
f 4/9/9 2/10/10 1/11/11
f 3/13/13 4/14/14 1/15/15
f 7/17/17 8/18/18 6/19/19
f 5/21/21 7/22/22 6/23/23
f 5/25/25 6/26/26 8/27/27
f 7/29/29 5/30/30 8/31/31
f 10/33/33 12/34/34 11/35/35
f 9/37/37 10/38/38 11/39/39
f 12/41/41 10/42/42 9/43/43
f 11/45/45 12/46/46 9/47/47
f 15/49/49 16/50/50 14/51/51
f 13/53/53 15/54/54 14/55/55
f 13/57/57 14/58/58 16/59/59
f 15/61/61 13/62/62 16/63/63
# 16 elements

