# Created by Metasequoia

v 0.000000 0.043469 0.070075
v 0.000000 -0.001531 0.070075
v 0.031820 0.011649 0.070075
v 0.045000 0.043469 0.070075
v 0.031820 0.075289 0.070075
v 0.000000 0.088469 0.070075
v -0.031820 0.075289 0.070075
v -0.045000 0.043469 0.070075
v -0.031820 0.011649 0.070075
v 0.000000 0.000969 -0.075975
v 0.030052 0.013417 -0.075975
v 0.042500 0.043469 -0.075975
v 0.030052 0.073521 -0.075975
v 0.000000 0.085969 -0.075975
v -0.042500 0.043469 -0.075975
v -0.030052 0.013417 -0.075975
v -0.030052 0.073521 -0.075975
v -0.010000 0.033469 0.097050
v -0.010000 0.033469 0.070050
v 0.010000 0.033469 0.097050
v 0.010000 0.033469 0.070050
v 0.010000 0.053469 0.097050
v 0.010000 0.053469 0.070050
v -0.010000 0.053469 0.097050
v -0.010000 0.053469 0.070050
v 0.000000 0.000969 0.057002
v 0.030052 0.013417 0.057002
v 0.042500 0.043469 0.057002
v 0.030052 0.073521 0.057002
v 0.000000 0.085969 0.057002
v -0.030052 0.073521 0.057002
v -0.042500 0.043469 0.057002
v -0.030052 0.013417 0.057002
v 0.045000 0.043469 0.059476
v 0.031820 0.011649 0.059476
v 0.031820 0.075289 0.059476
v 0.000000 0.088469 0.059476
v -0.031820 0.075289 0.059476
v -0.045000 0.043469 0.059476
v -0.031820 0.011649 0.059476
v 0.000000 -0.001531 0.059476
# 41 vertices

vt 0.90672 0.26459
vt 0.95556 0.16402
vt 0.90672 0.12236
vt 0.97579 0.26459
vt 0.95556 0.36516
vt 0.90672 0.40682
vt 0.85788 0.36516
vt 0.83765 0.26459
vt 0.85788 0.16402
vt 0.84997 0.69161
vt 0.89710 0.92112
vt 0.94423 0.88174
vt 0.96376 0.78668
vt 0.94423 0.69161
vt 0.89710 0.65224
vt 0.83044 0.78668
vt 0.84997 0.88174
vt 0.00312 0.11227
vt 0.00312 0.00641
vt 0.05173 0.11227
vt 0.05173 0.00641
vt 0.10719 0.19582
vt 0.01026 0.19582
vt 0.01026 0.90706
vt 0.10719 0.90706
vt 0.20411 0.19582
vt 0.20411 0.90706
vt 0.30104 0.19582
vt 0.30104 0.90706
vt 0.39797 0.19582
vt 0.39797 0.90706
vt 0.49489 0.19582
vt 0.49489 0.90706
vt 0.59182 0.19582
vt 0.59182 0.90706
vt 0.68875 0.19582
vt 0.68875 0.90706
vt 0.78567 0.19582
vt 0.78567 0.90706
vt 0.10719 0.91559
vt 0.20411 0.91559
vt 0.10719 0.98974
vt 0.20411 0.98974
vt 0.30104 0.91559
vt 0.30104 0.98974
vt 0.39797 0.91559
vt 0.39797 0.98974
vt 0.49489 0.91559
vt 0.49489 0.98974
vt 0.59182 0.91559
vt 0.59182 0.98974
vt 0.68875 0.91559
vt 0.68875 0.98974
vt 0.78567 0.91559
vt 0.78567 0.98974
vt 0.01026 0.91559
vt 0.01026 0.98974
# 57 texture vertices

vn -0.00000 -0.00000 1.00000
vn 0.00000 -0.00000 1.00000
vn -0.00000 -0.00000 1.00000
vn 0.00000 -0.00000 1.00000
vn -0.00000 -0.00000 1.00000
vn 0.00000 0.00000 1.00000
vn 0.00000 -0.00000 1.00000
vn 0.00000 -0.00000 1.00000
vn 0.00000 -0.00000 -1.00000
vn -0.00000 -0.00000 -1.00000
vn 0.00000 0.00000 -1.00000
vn -0.00000 -0.00000 -1.00000
vn -0.00000 -0.00000 -1.00000
vn 0.00000 0.00000 -1.00000
vn 0.00000 -0.00000 -1.00000
vn 0.00000 -1.00000 0.00000
vn 1.00000 0.00000 0.00000
vn 0.00000 1.00000 0.00000
vn 0.06245 -0.89311 -0.44548
vn 0.73075 -0.60660 -0.31312
vn 0.91958 0.01974 -0.39242
vn 0.63628 0.66419 -0.39243
vn -0.06245 0.89312 -0.44547
vn -0.73075 0.60660 -0.31312
vn -0.91958 -0.01974 -0.39241
vn -0.63628 -0.66419 -0.39243
vn 0.91958 -0.01974 -0.39241
vn 0.58737 -0.67569 -0.44548
vn 0.66419 0.63628 -0.39243
vn 0.08779 0.94566 -0.31309
vn -0.58737 0.67569 -0.44547
vn -0.91958 0.01974 -0.39241
vn -0.66419 -0.63628 -0.39243
vn -0.08779 -0.94565 -0.31310
vn -1.00000 0.00000 0.00000
vn 0.60375 -0.79717 0.00000
vn -0.13677 -0.99060 0.00000
vn 0.99060 -0.13677 0.00000
vn 0.79717 0.60375 0.00000
vn 0.13677 0.99060 0.00000
vn -0.60375 0.79717 0.00000
vn -0.99060 0.13677 0.00000
vn -0.79717 -0.60375 0.00000
vn 0.79718 -0.60375 -0.00000
vn 0.99060 0.13677 0.00000
vn 0.60375 0.79718 0.00000
vn -0.13677 0.99060 0.00000
vn -0.79718 0.60375 0.00000
vn -0.99060 -0.13677 0.00000
vn -0.60375 -0.79718 0.00000
vn 0.13677 -0.99060 0.00000
# 51 normal vertices

g obj1
f 2/3/2 3/2/3 1/1/1
f 3/2/3 4/4/4 1/1/1
f 4/4/4 5/5/5 1/1/1
f 5/5/5 6/6/6 1/1/1
f 6/6/6 7/7/7 1/1/1
f 7/7/7 8/8/4 1/1/1
f 8/8/4 9/9/8 1/1/1
f 9/9/8 2/3/2 1/1/1
f 11/12/10 10/11/9 17/10/15
f 12/13/11 11/12/10 17/10/15
f 13/14/12 12/13/11 17/10/15
f 14/15/13 13/14/12 17/10/15
f 16/17/14 15/16/11 17/10/15
f 10/11/9 16/17/14 17/10/15
f 19/19/16 21/19/16 20/18/16
f 18/18/16 19/19/16 20/18/16
f 21/19/17 23/21/17 22/20/17
f 20/18/17 21/19/17 22/20/17
f 23/21/18 25/21/18 24/20/18
f 22/20/18 23/21/18 24/20/18
f 25/21/35 19/19/35 18/18/35
f 24/20/35 25/21/35 18/18/35
f 18/18/6 20/18/6 22/20/6
f 24/20/6 18/18/6 22/20/6
f 26/24/19 10/23/37 11/22/36
f 27/25/20 26/24/19 11/22/36
f 27/25/20 11/22/36 12/26/38
f 28/27/21 27/25/20 12/26/38
f 28/27/21 12/26/38 13/28/39
f 29/29/22 28/27/21 13/28/39
f 29/29/22 13/28/39 14/30/40
f 30/31/23 29/29/22 14/30/40
f 30/31/23 14/30/40 17/32/41
f 31/33/24 30/31/23 17/32/41
f 31/33/24 17/32/41 15/34/42
f 32/35/25 31/33/24 15/34/42
f 32/35/25 15/34/42 16/36/43
f 33/37/26 32/35/25 16/36/43
f 33/37/26 16/36/43 10/38/37
f 26/39/19 33/37/26 10/38/37
f 35/40/28 27/25/20 28/27/21
f 34/41/27 35/40/28 28/27/21
f 34/41/27 4/43/45 3/42/44
f 35/40/28 34/41/27 3/42/44
f 34/41/27 28/27/21 29/29/22
f 36/44/29 34/41/27 29/29/22
f 36/44/29 5/45/46 4/43/45
f 34/41/27 36/44/29 4/43/45
f 36/44/29 29/29/22 30/31/23
f 37/46/30 36/44/29 30/31/23
f 37/46/30 6/47/47 5/45/46
f 36/44/29 37/46/30 5/45/46
f 30/31/23 31/33/24 38/48/31
f 37/46/30 30/31/23 38/48/31
f 38/48/31 7/49/48 6/47/47
f 37/46/30 38/48/31 6/47/47
f 38/48/31 31/33/24 32/35/25
f 39/50/32 38/48/31 32/35/25
f 39/50/32 8/51/49 7/49/48
f 38/48/31 39/50/32 7/49/48
f 39/50/32 32/35/25 33/37/26
f 40/52/33 39/50/32 33/37/26
f 40/52/33 9/53/50 8/51/49
f 39/50/32 40/52/33 8/51/49
f 40/52/33 33/37/26 26/39/19
f 41/54/34 40/52/33 26/39/19
f 41/54/34 2/55/51 9/53/50
f 40/52/33 41/54/34 9/53/50
f 26/24/19 27/25/20 35/40/28
f 41/56/34 26/24/19 35/40/28
f 35/40/28 3/42/44 2/57/51
f 41/56/34 35/40/28 2/57/51
# 72 elements

