# Created by Metasequoia

v -0.500000 0.500000 0.500000
v -0.500000 -0.500000 0.500000
v 0.500000 0.500000 0.500000
v 0.500000 -0.500000 0.500000
v 0.500000 0.500000 -0.500000
v 0.500000 -0.500000 -0.500000
v -0.500000 0.500000 -0.500000
v -0.500000 -0.500000 -0.500000
# 8 vertices

vt 1.00000 1.00000
vt 1.00000 0.00000
vt 0.00000 0.00000
vt 0.00000 1.00000
# 4 texture vertices

vn 0.00000 0.00000 1.00000
vn 1.00000 0.00000 0.00000
vn 0.00000 0.00000 -1.00000
vn -1.00000 0.00000 0.00000
vn 0.00000 1.00000 0.00000
vn 0.00000 -1.00000 0.00000
# 6 normal vertices

g obj2
f 2/3/1 4/2/1 3/1/1
f 1/4/1 2/3/1 3/1/1
f 4/3/2 6/2/2 5/1/2
f 3/4/2 4/3/2 5/1/2
f 6/3/3 8/2/3 7/1/3
f 5/4/3 6/3/3 7/1/3
f 8/3/4 2/2/4 1/1/4
f 7/4/4 8/3/4 1/1/4
f 1/3/5 3/2/5 5/1/5
f 7/4/5 1/3/5 5/1/5
f 8/3/6 6/2/6 4/1/6
f 2/4/6 8/3/6 4/1/6
f 1/4/3 3/1/3 4/2/3
f 2/3/3 1/4/3 4/2/3
f 3/4/4 5/1/4 6/2/4
f 4/3/4 3/4/4 6/2/4
f 5/4/1 7/1/1 8/2/1
f 6/3/1 5/4/1 8/2/1
f 7/4/2 1/1/2 2/2/2
f 8/3/2 7/4/2 2/2/2
f 7/4/6 5/1/6 3/2/6
f 1/3/6 7/4/6 3/2/6
f 2/4/5 4/1/5 6/2/5
f 8/3/5 2/4/5 6/2/5
# 24 elements

