# Created by Metasequoia

v 0.179129 3.108668 0.914933
v 0.000082 3.180072 -0.907499
v 0.000352 2.863609 0.112284
v 1.267614 2.903299 0.919208
v 0.879305 3.019446 0.915463
v 2.505502 2.358722 -0.897129
v 0.426207 3.119600 -0.892950
v 1.726182 2.758883 0.918234
v 1.417753 2.852844 -0.891893
v 0.954288 3.094892 -0.893703
v 2.473712 2.072741 -0.004297
v 2.357718 2.654311 0.055746
v 1.829691 2.897490 0.004237
v 1.175412 3.093935 0.001603
v 0.061848 3.115034 -0.078192
v 0.625588 3.109079 -0.043316
v 0.000352 3.158499 -0.499694
v 2.154997 2.549497 -0.870474
v 2.348952 2.317190 -0.023965
v 2.289861 2.474159 0.921342
v 1.899365 2.551156 -0.017927
v 1.349883 2.798043 -0.026597
v 0.641551 2.922051 0.029520
v -0.178426 3.108668 0.914933
v -1.266911 2.903299 0.919208
v -0.878602 3.019446 0.915463
v -2.504799 2.358722 -0.897129
v -0.425504 3.119600 -0.892950
v -1.725479 2.758883 0.918234
v -1.417050 2.852844 -0.891893
v -0.953585 3.094892 -0.893703
v -2.473008 2.072741 -0.004297
v -2.357014 2.654311 0.055746
v -1.828988 2.897490 0.004237
v -1.174708 3.093935 0.001603
v -0.061144 3.115034 -0.078192
v -0.624885 3.109079 -0.043316
v -2.154294 2.549497 -0.870474
v -2.348249 2.317190 -0.023965
v -2.289158 2.474159 0.921342
v -1.898662 2.551156 -0.017927
v -1.349180 2.798043 -0.026597
v -0.640848 2.922051 0.029520
v 0.401784 -0.031035 -0.094610
v -0.401081 -0.031035 -0.094610
v 0.401784 0.169683 -0.094610
v -0.401081 0.169683 -0.094610
v 0.401784 -0.031035 0.106107
v 0.401784 0.169683 0.106107
v -0.401081 0.169683 0.106107
v -0.401081 -0.031035 0.106107
v -2.273624 2.487934 0.898455
v -2.258344 2.497725 0.867021
v -2.288904 2.478141 0.867021
v -0.380984 0.151441 0.098820
v -0.365704 0.161234 0.067387
v -0.396264 0.141649 0.067387
v -2.487777 2.371432 -0.880760
v -2.477092 2.383909 -0.847629
v -2.489002 2.358429 -0.847629
v -0.380984 0.151441 -0.090704
v -0.365704 0.161234 -0.059271
v -0.396264 0.141649 -0.067387
v 2.273624 2.487934 0.898455
v 2.258344 2.497725 0.867021
v 2.288904 2.478141 0.867021
v 0.380984 0.151441 0.098820
v 0.365704 0.161234 0.067387
v 0.396264 0.141649 0.067387
v 2.487777 2.371432 -0.880760
v 2.477092 2.383909 -0.847629
v 2.489002 2.358429 -0.847629
v 0.380984 0.151441 -0.090704
v 0.365704 0.161234 -0.059271
v 0.396264 0.141649 -0.067387
# 75 vertices

vt 0.94179 0.95655
vt 0.93605 0.79535
vt 0.91511 0.78451
vt 0.90285 0.62822
vt 0.87850 0.95174
vt 0.80108 0.62878
vt 0.81977 0.79381
vt 0.71828 0.62861
vt 0.70164 0.79428
vt 0.64817 0.62928
vt 0.52175 0.62938
vt 0.74539 0.95561
vt 0.56636 0.95580
vt 0.66171 0.95594
vt 0.60236 0.80239
vt 0.50058 0.80869
vt 0.48947 0.88480
vt 0.48942 0.95843
vt 0.91352 0.79890
vt 0.83235 0.79781
vt 0.73314 0.79938
vt 0.60524 0.78924
vt 0.48947 0.77430
vt 0.03715 0.95655
vt 0.06384 0.78451
vt 0.04290 0.79535
vt 0.07609 0.62822
vt 0.10044 0.95174
vt 0.17787 0.62878
vt 0.15918 0.79381
vt 0.26066 0.62861
vt 0.27731 0.79428
vt 0.45719 0.62938
vt 0.33077 0.62928
vt 0.23355 0.95561
vt 0.41258 0.95580
vt 0.37658 0.80239
vt 0.31723 0.95594
vt 0.47837 0.80869
vt 0.06542 0.79890
vt 0.14660 0.79781
vt 0.24581 0.79938
vt 0.37370 0.78924
vt 0.92674 0.58068
vt 0.05679 0.58068
vt 0.05679 0.36319
vt 0.92674 0.36319
vt 0.03411 0.15711
vt 0.96603 0.15711
vt 0.96603 0.14045
vt 0.03411 0.14045
vt 0.03411 0.17378
vt 0.96603 0.17378
vt 0.03411 0.19045
vt 0.96603 0.19045
# 55 texture vertices

vn 0.03249 0.99901 0.03040
vn -0.00008 0.99860 0.05282
vn 0.00002 -0.99951 -0.03141
vn 0.28665 0.94273 0.17059
vn 0.20391 0.96819 0.14499
vn 0.80499 0.59041 -0.05830
vn 0.08947 0.99536 0.03547
vn 0.37823 0.90568 0.19152
vn 0.37504 0.91128 -0.17004
vn 0.18257 0.98238 -0.03999
vn 0.97734 0.18415 0.10441
vn 0.68591 0.72658 0.04010
vn 0.35049 0.93651 -0.01081
vn 0.21682 0.97588 0.02529
vn 0.03649 0.99851 0.04053
vn 0.02429 0.99969 0.00471
vn -0.00003 0.99731 0.07326
vn 0.42016 0.88439 -0.20328
vn -0.66464 -0.74442 -0.06395
vn 0.78816 0.58731 0.18402
vn -0.42902 -0.90329 0.00345
vn -0.32606 -0.94512 -0.02082
vn -0.09178 -0.99578 0.00274
vn -0.04063 0.99851 0.03641
vn -0.28665 0.94273 0.17059
vn -0.20391 0.96819 0.14499
vn -0.80499 0.59041 -0.05830
vn -0.08951 0.99535 0.03551
vn -0.37823 0.90568 0.19152
vn -0.37504 0.91128 -0.17004
vn -0.18257 0.98238 -0.03999
vn -0.97734 0.18415 0.10441
vn -0.68591 0.72658 0.04010
vn -0.35049 0.93651 -0.01081
vn -0.21682 0.97588 0.02529
vn -0.03040 0.99893 0.03484
vn -0.02429 0.99969 0.00471
vn -0.42016 0.88439 -0.20328
vn 0.66464 -0.74442 -0.06395
vn -0.78816 0.58731 0.18402
vn 0.42902 -0.90329 0.00345
vn 0.32606 -0.94512 -0.02082
vn 0.09178 -0.99578 0.00274
vn 0.00000 0.00000 -1.00000
vn -1.00000 0.00000 0.00000
vn 0.00000 -1.00000 0.00000
vn 0.00000 0.00000 1.00000
vn 0.00000 1.00000 0.00000
vn 0.74877 0.43553 0.49965
vn 0.74877 0.43553 0.49966
vn -0.13947 0.21763 -0.96602
vn 0.74877 0.43552 0.49967
vn 0.72536 0.53360 -0.43489
vn 0.71798 0.51557 -0.46764
vn -0.26683 0.08654 0.95985
vn 0.70957 0.49680 -0.49971
vn -0.29208 0.06022 0.95450
vn -0.74877 0.43553 0.49965
vn -0.74877 0.43553 0.49966
vn 0.13947 0.21763 -0.96602
vn -0.74877 0.43552 0.49967
vn -0.72536 0.53360 -0.43489
vn -0.71798 0.51557 -0.46764
vn 0.26683 0.08654 0.95985
vn -0.70957 0.49680 -0.49971
vn 0.29208 0.06022 0.95450
vn -0.43920 -0.88966 -0.12491
vn -0.70497 -0.69113 -0.15927
vn -0.38630 -0.91620 0.10649
vn -0.62648 -0.77451 0.08756
vn -0.41470 -0.90472 -0.09751
vn -0.24978 -0.96103 0.11848
vn -0.23506 -0.95505 -0.18061
vn -0.03699 -0.97023 -0.23935
vn -0.00129 -0.97210 0.23458
vn -0.20509 -0.96538 0.16117
vn 0.00008 -0.95507 -0.29638
vn 0.43920 -0.88966 -0.12491
vn 0.70497 -0.69113 -0.15927
vn 0.38630 -0.91620 0.10649
vn 0.62648 -0.77451 0.08756
vn 0.41470 -0.90472 -0.09751
vn 0.24978 -0.96103 0.11848
vn 0.23506 -0.95505 -0.18061
vn 0.03704 -0.97022 -0.23937
vn 0.00129 -0.97210 0.23458
vn 0.20509 -0.96538 0.16117
vn 1.00000 0.00000 0.00000
vn -0.88527 -0.45822 -0.07957
vn 0.88527 -0.45822 -0.07957
vn -0.58949 -0.64427 0.48726
vn -0.58949 -0.64427 0.48726
vn -0.58949 -0.64427 0.48727
vn -0.24121 0.11275 0.96390
vn -0.56318 -0.69253 -0.45081
vn -0.47547 -0.65541 -0.58682
vn -0.63535 -0.71056 -0.30237
vn 0.58949 -0.64427 0.48726
vn 0.58949 -0.64427 0.48726
vn 0.58949 -0.64427 0.48727
vn 0.24121 0.11275 0.96390
vn 0.56318 -0.69253 -0.45081
vn 0.47547 -0.65541 -0.58682
vn 0.63535 -0.71056 -0.30237
# 104 normal vertices

f 12/3/12 11/2/11 6/1/6
f 20/4/20 11/2/11 12/3/12
f 12/3/12 6/1/6 18/5/18
f 8/6/8 20/4/20 12/3/12
f 4/8/4 8/6/8 13/7/13
f 8/6/8 12/3/12 13/7/13
f 13/7/13 12/3/12 18/5/18
f 1/11/1 5/10/5 14/9/14
f 13/7/13 18/5/18 9/12/9
f 14/9/14 13/7/13 9/12/9
f 4/8/4 13/7/13 14/9/14
f 5/10/5 4/8/4 14/9/14
f 16/15/16 10/14/10 7/13/7
f 15/16/15 16/15/16 7/13/7
f 1/11/1 16/15/16 15/16/15
f 14/9/14 9/12/9 10/14/10
f 16/15/16 14/9/14 10/14/10
f 1/11/1 14/9/14 16/15/16
f 17/17/17 15/16/15 7/13/7
f 2/18/2 17/17/17 7/13/7
f 6/1/68 19/19/19 18/5/67
f 21/20/21 20/4/70 8/6/69
f 22/21/22 21/20/21 8/6/69
f 9/12/71 21/20/21 22/21/22
f 21/20/21 19/19/19 20/4/70
f 18/5/67 19/19/19 21/20/21
f 9/12/71 18/5/67 21/20/21
f 22/21/22 8/6/69 4/8/72
f 23/22/23 22/21/22 4/8/72
f 10/14/73 22/21/22 23/22/23
f 7/13/74 10/14/73 23/22/23
f 10/14/73 9/12/71 22/21/22
f 23/22/23 5/10/76 1/11/75
f 3/23/3 23/22/23 1/11/75
f 7/13/74 23/22/23 3/23/3
f 2/18/77 7/13/74 3/23/3
f 23/22/23 4/8/72 5/10/76
f 32/26/32 33/25/33 27/24/27
f 32/26/32 40/27/40 33/25/33
f 27/24/27 33/25/33 38/28/38
f 40/27/40 29/29/29 33/25/33
f 29/29/29 25/31/25 34/30/34
f 33/25/33 29/29/29 34/30/34
f 33/25/33 34/30/34 38/28/38
f 26/34/26 24/33/24 35/32/35
f 38/28/38 34/30/34 30/35/30
f 34/30/34 35/32/35 30/35/30
f 34/30/34 25/31/25 35/32/35
f 25/31/25 26/34/26 35/32/35
f 31/38/31 37/37/37 28/36/28
f 37/37/37 36/39/36 28/36/28
f 37/37/37 24/33/24 36/39/36
f 30/35/30 35/32/35 31/38/31
f 35/32/35 37/37/37 31/38/31
f 35/32/35 24/33/24 37/37/37
f 36/39/36 17/17/17 28/36/28
f 17/17/17 2/18/2 28/36/28
f 39/40/39 27/24/79 38/28/78
f 40/27/81 41/41/41 29/29/80
f 41/41/41 42/42/42 29/29/80
f 41/41/41 30/35/82 42/42/42
f 39/40/39 41/41/41 40/27/81
f 39/40/39 38/28/78 41/41/41
f 38/28/78 30/35/82 41/41/41
f 29/29/80 42/42/42 25/31/83
f 42/42/42 43/43/43 25/31/83
f 42/42/42 31/38/84 43/43/43
f 31/38/84 28/36/85 43/43/43
f 30/35/82 31/38/84 42/42/42
f 26/34/87 43/43/43 24/33/86
f 43/43/43 3/23/3 24/33/86
f 43/43/43 28/36/85 3/23/3
f 28/36/85 2/18/77 3/23/3
f 25/31/83 43/43/43 26/34/87
f 17/17/17 36/39/36 15/16/15
f 24/33/86 3/23/3 1/11/75
f 47/45/46 46/44/46 49/44/46
f 49/44/48 46/44/48 47/45/48
f 49/44/48 47/45/48 50/45/48
f 50/45/46 47/45/46 49/44/46
f 47/45/45 45/46/45 50/45/45
f 48/47/47 49/44/47 50/45/47
f 51/46/47 48/47/47 50/45/47
f 45/46/45 51/46/45 50/45/45
f 36/39/36 24/33/24 1/11/1
f 15/16/15 36/39/36 1/11/1
f 47/45/44 46/44/44 44/47/44
f 45/46/44 47/45/44 44/47/44
f 45/46/47 44/47/47 46/44/47
f 47/45/47 45/46/47 46/44/47
f 46/44/88 49/44/88 48/47/88
f 44/47/88 46/44/88 48/47/88
f 44/47/45 48/47/45 49/44/45
f 46/44/45 44/47/45 49/44/45
f 51/46/46 45/46/46 44/47/46
f 48/47/46 51/46/46 44/47/46
f 11/2/89 19/19/19 6/1/68
f 11/2/89 20/4/70 19/19/19
f 39/40/39 40/27/81 32/26/90
f 32/26/90 27/24/79 39/40/39
f 55/50/50 56/49/52 53/48/50
f 52/51/49 55/50/50 53/48/50
f 56/49/51 57/53/51 54/52/51
f 53/48/51 56/49/51 54/52/51
f 57/53/91 55/55/92 52/54/91
f 54/52/93 57/53/91 52/54/91
f 59/48/54 62/49/56 61/50/54
f 58/51/53 59/48/54 61/50/54
f 60/52/55 63/53/57 62/49/55
f 59/48/94 60/52/55 62/49/55
f 61/55/95 63/53/96 60/52/95
f 58/54/97 61/55/95 60/52/95
f 65/48/59 68/49/61 67/50/59
f 65/48/59 67/50/59 64/51/58
f 66/52/60 69/53/60 68/49/60
f 66/52/60 68/49/60 65/48/60
f 64/54/98 67/55/99 69/53/98
f 64/54/98 69/53/98 66/52/100
f 73/50/63 74/49/65 71/48/63
f 73/50/63 71/48/63 70/51/62
f 74/49/64 75/53/66 72/52/64
f 74/49/64 72/52/64 71/48/101
f 72/52/102 75/53/103 73/55/102
f 72/52/102 73/55/102 70/54/104
# 124 elements

